<svg width="194" height="178" viewBox="0 0 194 178" fill="none" xmlns="http://www.w3.org/2000/svg">
<path d="M7.63595 0.227985C28.8168 -0.269497 108.055 0.227985 119.595 0.0588414C123.441 -0.0108061 127.478 3.16313 128.167 7.09324C128.737 14.7445 128.227 23.1918 128.387 31.0022C128.367 35.3801 128.397 38.6137 128.387 42.1458C128.627 46.3247 127.947 49.9861 124.401 52.2945C122.183 53.5581 121.154 53.7471 119.705 53.7869C109.524 53.1302 16.0184 55.1301 5.72767 52.9511C0.43245 50.6528 0.282585 45.3297 0.512378 40.4146C0.512378 33.3006 0.512378 20.2168 0.512378 13.2123C0.172684 7.39173 0.912017 1.95922 7.53604 0.257834L7.63595 0.237935V0.227985Z" fill="url(#paint0_linear_28_107)"/>
<path d="M7.63595 124.228C28.8168 123.731 108.055 124.228 119.595 124.059C123.441 123.989 127.478 127.163 128.167 131.093C128.737 138.745 128.227 147.192 128.387 155.002C128.367 159.38 128.397 162.614 128.387 166.146C128.627 170.325 127.947 173.986 124.401 176.294C122.183 177.558 121.154 177.747 119.705 177.787C109.524 177.13 16.0184 179.13 5.72767 176.951C0.43245 174.653 0.282585 169.33 0.512378 164.415C0.512378 157.301 0.512378 144.217 0.512378 137.212C0.172684 131.382 0.912017 125.959 7.53604 124.248L7.63595 124.228Z" fill="url(#paint1_linear_28_107)"/>
<path d="M7.92329 62.1924C18.1391 61.7733 41.0487 62.1924 48.6141 62.0427C54.3212 61.6435 58.83 66.374 58.3832 71.7532C58.373 77.3719 58.3832 95.9347 58.3832 104.637C59.0331 112.242 54.5141 116.593 46.7659 115.935C37.2203 115.945 16.1894 115.935 10.2691 115.935C7.99438 116.044 5.58765 115.366 3.74961 113.939C1.19057 111.793 0.428944 109.078 0.500029 106.224C0.500029 102.631 0.500029 92.3718 0.500029 83.7491C0.500029 79.4677 0.500029 76.1444 0.500029 72.5616C0.0227482 67.9808 2.66305 63.0906 7.80143 62.2224L7.92329 62.2024V62.1924Z" fill="url(#paint2_linear_28_107)"/>
<path d="M78.9232 62.1924C89.139 61.7733 112.049 62.1924 119.614 62.0427C125.321 61.6435 129.83 66.374 129.383 71.7532C129.373 77.3719 129.383 95.9347 129.383 104.637C130.033 112.242 125.514 116.593 117.766 115.935C108.22 115.945 87.1893 115.935 81.269 115.935C78.9943 116.044 76.5875 115.366 74.7495 113.939C72.1904 111.803 71.4288 109.078 71.4999 106.224C71.4999 102.631 71.4999 92.3718 71.4999 83.7491C71.4999 79.4677 71.4999 76.1444 71.4999 72.5616C71.0226 67.9808 73.6629 63.0906 78.8013 62.2224L78.9232 62.2024V62.1924Z" fill="url(#paint3_linear_28_107)"/>
<path d="M136 8C136 3.58172 139.582 0 144 0H186C190.418 0 194 3.58172 194 8V170C194 174.418 190.418 178 186 178H144C139.582 178 136 174.418 136 170V8Z" fill="url(#paint4_linear_28_107)"/>
<defs>
<linearGradient id="paint0_linear_28_107" x1="64.4449" y1="0" x2="64.4449" y2="54" gradientUnits="userSpaceOnUse">
<stop stop-color="#2A9658"/>
<stop offset="0.0769231" stop-color="#288E53"/>
<stop offset="1" stop-color="#0D301C"/>
</linearGradient>
<linearGradient id="paint1_linear_28_107" x1="64.4449" y1="124" x2="64.4449" y2="178" gradientUnits="userSpaceOnUse">
<stop stop-color="#2A9658"/>
<stop offset="0.0769231" stop-color="#288E53"/>
<stop offset="1" stop-color="#0D301C"/>
</linearGradient>
<linearGradient id="paint2_linear_28_107" x1="29.4449" y1="62" x2="29.4449" y2="116" gradientUnits="userSpaceOnUse">
<stop stop-color="#2A9658"/>
<stop offset="0.0769231" stop-color="#288E53"/>
<stop offset="1" stop-color="#0D301C"/>
</linearGradient>
<linearGradient id="paint3_linear_28_107" x1="100.445" y1="62" x2="100.445" y2="116" gradientUnits="userSpaceOnUse">
<stop stop-color="#2A9658"/>
<stop offset="0.0769231" stop-color="#288E53"/>
<stop offset="1" stop-color="#0D301C"/>
</linearGradient>
<linearGradient id="paint4_linear_28_107" x1="165" y1="0" x2="165" y2="178" gradientUnits="userSpaceOnUse">
<stop stop-color="#2A9658"/>
<stop offset="0.0769231" stop-color="#288E53"/>
<stop offset="1" stop-color="#0D301C"/>
</linearGradient>
</defs>
</svg>
