<?xml version="1.0" encoding="UTF-8"?>
<svg id="Layer_2" data-name="Layer 2" xmlns="http://www.w3.org/2000/svg" xmlns:xlink="http://www.w3.org/1999/xlink" viewBox="0 0 987.24 184.76">
  <defs>
    <style>
      .cls-1 {
        fill: url(#linear-gradient-15);
      }

      .cls-2 {
        fill: url(#linear-gradient-13);
      }

      .cls-3 {
        fill: none;
        stroke: #509d3f;
        stroke-miterlimit: 10;
      }

      .cls-4 {
        fill: url(#linear-gradient-2);
      }

      .cls-5 {
        fill: url(#linear-gradient-10);
      }

      .cls-6 {
        fill: url(#linear-gradient-12);
      }

      .cls-7 {
        fill: url(#linear-gradient-4);
      }

      .cls-8 {
        fill: url(#linear-gradient-3);
      }

      .cls-9 {
        fill: url(#linear-gradient-5);
      }

      .cls-10 {
        fill: url(#linear-gradient-8);
      }

      .cls-11 {
        fill: url(#linear-gradient-14);
      }

      .cls-12 {
        fill: url(#linear-gradient-17);
      }

      .cls-13 {
        fill: url(#linear-gradient-7);
      }

      .cls-14 {
        fill: url(#linear-gradient-9);
      }

      .cls-15 {
        fill: url(#linear-gradient-11);
      }

      .cls-16 {
        fill: url(#linear-gradient-6);
      }

      .cls-17 {
        fill: url(#linear-gradient-16);
      }

      .cls-18 {
        fill: url(#linear-gradient);
      }

      .cls-19 {
        fill: url(#linear-gradient-18);
      }
    </style>
    <linearGradient id="linear-gradient" x1="0" y1="32.19" x2="128.12" y2="32.19" gradientUnits="userSpaceOnUse">
      <stop offset="0" stop-color="#419d54"/>
      <stop offset="1" stop-color="#a5c33f"/>
    </linearGradient>
    <linearGradient id="linear-gradient-2" x1="0" y1="156.19" x2="128.12" y2="156.19" xlink:href="#linear-gradient"/>
    <linearGradient id="linear-gradient-3" x1="142" y1="32.19" x2="270.12" y2="32.19" xlink:href="#linear-gradient"/>
    <linearGradient id="linear-gradient-4" x1="142" y1="94.19" x2="270.12" y2="94.19" xlink:href="#linear-gradient"/>
    <linearGradient id="linear-gradient-5" x1="142.01" y1="156.12" x2="199.13" y2="156.12" xlink:href="#linear-gradient"/>
    <linearGradient id="linear-gradient-6" x1=".01" y1="94.12" x2="57.13" y2="94.12" xlink:href="#linear-gradient"/>
    <linearGradient id="linear-gradient-7" x1="213.01" y1="156.12" x2="270.13" y2="156.12" xlink:href="#linear-gradient"/>
    <linearGradient id="linear-gradient-8" x1="71.01" y1="94.12" x2="128.13" y2="94.12" xlink:href="#linear-gradient"/>
    <linearGradient id="linear-gradient-9" x1="309.93" y1="19.1" x2="404.19" y2="19.1" xlink:href="#linear-gradient"/>
    <linearGradient id="linear-gradient-10" x1="310.93" y1="90.1" x2="405.19" y2="90.1" xlink:href="#linear-gradient"/>
    <linearGradient id="linear-gradient-11" x1="320.89" y1="54.13" x2="351.27" y2="54.13" xlink:href="#linear-gradient"/>
    <linearGradient id="linear-gradient-12" x1="363.89" y1="54.13" x2="394.27" y2="54.13" xlink:href="#linear-gradient"/>
    <linearGradient id="linear-gradient-13" x1="332.43" y1="93.25" x2="987.24" y2="93.25" xlink:href="#linear-gradient"/>
    <linearGradient id="linear-gradient-14" x1="671.89" y1="96.13" x2="702.27" y2="96.13" xlink:href="#linear-gradient"/>
    <linearGradient id="linear-gradient-15" x1="718.89" y1="96.13" x2="749.27" y2="96.13" xlink:href="#linear-gradient"/>
    <linearGradient id="linear-gradient-16" x1="675.87" y1="56.11" x2="745.27" y2="56.11" xlink:href="#linear-gradient"/>
    <linearGradient id="linear-gradient-17" x1="686.88" y1="16.07" x2="734.28" y2="16.07" xlink:href="#linear-gradient"/>
    <linearGradient id="linear-gradient-18" x1="0" y1="92.38" x2="987.24" y2="92.38" gradientUnits="userSpaceOnUse">
      <stop offset="0" stop-color="#54aa67"/>
      <stop offset="1" stop-color="#a5c33f"/>
    </linearGradient>
  </defs>
  <g id="_1500_x_1500_px_Pwin_Logo_1" data-name="1500 x 1500 px Pwin Logo 1">
    <g>
      <g>
        <path class="cls-18" d="M7.2,5.28c21.2-.5,100.51,0,112.06-.17,3.85-.07,7.89,3.12,8.58,7.07.57,7.69.06,16.18.22,24.03-.02,4.4.01,7.65,0,11.2.24,4.2-.44,7.88-3.99,10.2-2.22,1.27-3.25,1.46-4.7,1.5-10.19-.66-103.78,1.35-114.08-.84C-.01,55.96-.16,50.61.07,45.67c0-7.15,0-20.3,0-27.34C-.27,12.48.47,7.02,7.1,5.31l.1-.02Z"/>
        <path class="cls-4" d="M7.2,129.28c21.2-.5,100.51,0,112.06-.17,3.85-.07,7.89,3.12,8.58,7.07.57,7.69.06,16.18.22,24.03-.02,4.4.01,7.65,0,11.2.24,4.2-.44,7.88-3.99,10.2-2.22,1.27-3.25,1.46-4.7,1.5-10.19-.66-103.78,1.35-114.08-.84C-.01,179.96-.16,174.61.07,169.67c0-7.15,0-20.3,0-27.34-.34-5.86.4-11.31,7.03-13.03l.1-.02Z"/>
        <path class="cls-8" d="M149.2,5.28c21.2-.5,100.51,0,112.06-.17,3.85-.07,7.89,3.12,8.58,7.07.57,7.69.06,16.18.22,24.03-.02,4.4.01,7.65,0,11.2.24,4.2-.44,7.88-3.99,10.2-2.22,1.27-3.25,1.46-4.7,1.5-10.19-.66-103.78,1.35-114.08-.84-5.3-2.31-5.45-7.67-5.22-12.6,0-7.15,0-20.3,0-27.34-.34-5.86.4-11.31,7.03-13.03l.1-.02Z"/>
        <path class="cls-7" d="M149.2,67.28c21.2-.5,100.51,0,112.06-.17,3.85-.07,7.89,3.12,8.58,7.07.57,7.69.06,16.18.22,24.03-.02,4.4.01,7.65,0,11.2.24,4.2-.44,7.88-3.99,10.2-2.22,1.27-3.25,1.46-4.7,1.5-10.19-.66-103.78,1.35-114.08-.84-5.3-2.31-5.45-7.67-5.22-12.6,0-7.15,0-20.3,0-27.34-.34-5.86.4-11.31,7.03-13.03l.1-.02Z"/>
        <path class="cls-9" d="M149.38,129.26c10.06-.42,32.62,0,40.07-.15,5.62-.4,10.06,4.34,9.62,9.73-.01,5.63,0,24.23,0,32.95.64,7.62-3.81,11.98-11.44,11.32-9.4.01-30.11,0-35.94,0-2.24.11-4.61-.57-6.42-2-2.52-2.14-3.27-4.87-3.2-7.73,0-3.6,0-13.88,0-22.52,0-4.29,0-7.62,0-11.21-.47-4.59,2.13-9.49,7.19-10.36l.12-.02Z"/>
        <path class="cls-16" d="M7.38,67.26c10.06-.42,32.62,0,40.07-.15,5.62-.4,10.06,4.34,9.62,9.73-.01,5.63,0,24.23,0,32.95.64,7.62-3.81,11.98-11.44,11.32-9.4.01-30.11,0-35.94,0-2.24.11-4.61-.57-6.42-2C.75,116.96,0,114.24.07,111.38c0-3.6,0-13.88,0-22.52,0-4.29,0-7.62,0-11.21-.47-4.59,2.13-9.49,7.19-10.36l.12-.02Z"/>
        <path class="cls-13" d="M220.38,129.26c10.06-.42,32.62,0,40.07-.15,5.62-.4,10.06,4.34,9.62,9.73-.01,5.63,0,24.23,0,32.95.64,7.62-3.81,11.98-11.44,11.32-9.4.01-30.11,0-35.94,0-2.24.11-4.61-.57-6.42-2-2.52-2.14-3.27-4.87-3.2-7.73,0-3.6,0-13.88,0-22.52,0-4.29,0-7.62,0-11.21-.47-4.59,2.13-9.49,7.19-10.36l.12-.02Z"/>
        <path class="cls-10" d="M78.38,67.26c10.06-.42,32.62,0,40.07-.15,5.62-.4,10.06,4.34,9.62,9.73-.01,5.63,0,24.23,0,32.95.64,7.62-3.81,11.98-11.44,11.32-9.4.01-30.11,0-35.94,0-2.24.11-4.61-.57-6.42-2-2.52-2.14-3.27-4.87-3.2-7.73,0-3.6,0-13.88,0-22.52,0-4.29,0-7.62,0-11.21-.47-4.59,2.13-9.49,7.19-10.36l.12-.02Z"/>
        <path class="cls-14" d="M396.88,32.96c-17.22.4-71.41.04-78.58.14-.45-.02-1.06-.08-1.87-.3-7.01-1.56-6.59-10.37-6.43-16.91-.2-4.95,1.92-9.6,7.16-10.61,16.65-.49,69.12,0,78.05-.17,1.04,0,1.6.03,3.05.48,6.45,1.88,5.99,10.26,5.88,16.54.21,5.18-1.9,9.77-7.15,10.81l-.11.02Z"/>
        <path class="cls-5" d="M397.88,103.96c-17.22.4-71.41.04-78.58.14-.45-.02-1.06-.08-1.87-.3-7.01-1.56-6.59-10.37-6.43-16.91-.2-4.95,1.92-9.6,7.16-10.61,16.65-.49,69.12,0,78.05-.17,1.04,0,1.6.03,3.05.48,6.45,1.88,5.99,10.26,5.88,16.54.21,5.18-1.9,9.77-7.15,10.81l-.11.02Z"/>
        <path class="cls-15" d="M343.19,70.03c-7.59-.02-22.37,2.68-22.08-8.78.01-4.22-.48-9.02-.03-13.84.6-7.08,4.13-9.7,11.03-9.33,5.35-.07,12.85-.79,16.53,2.5,2.21,1.91,2.43,5.14,2.41,7.89-.13,6.76,2.5,20.84-7.68,21.54l-.18.02Z"/>
        <path class="cls-6" d="M386.19,70.03c-7.59-.02-22.37,2.68-22.08-8.78.01-4.22-.48-9.02-.03-13.84.6-7.08,4.13-9.7,11.03-9.33,5.35-.07,12.85-.79,16.53,2.5,2.21,1.91,2.43,5.14,2.41,7.89-.13,6.76,2.5,20.84-7.68,21.54l-.18.02Z"/>
        <path class="cls-2" d="M459,6.32c.66,20.21.01,86.52.23,100.51.06,2-1.85,4.57-3.9,5.38-2.67,1.02-7.92.36-11.45.54-9.93-.33-16.76,2.68-16.26-10.91-.04-3.39.69-7.29-1.39-9.98-1.63-2.11-4.77-2.17-7.33-2.4-7.64-.34-8.24-3.7-7.96-11.72.05-5.76-1.04-12.07,5.73-12.8,2.66-.44,5.94-.16,8.27-1.51,3.24-1.75,2.74-7.61-.96-8.63-2.92-1.07-6.56-.47-9.51-1.62-4.3-1.72-3.45-6.6-3.54-11.51.08-4.33-.51-8.3,2-10.27,2.78-2.38,6.89-1.43,10.17-2.27,4.1-1.17,4.75-4.43,4.58-8.57,0-3,0-7.34,0-10.57-.24-9.52,6.63-8.15,13.66-8.19,2.43,0,4.93,0,7.35,0,5.08-.19,8.4-.01,10.26,4.43l.03.1ZM395.85,114.86c14.4-.72,34.31,2.25,44.47,8.19,13.14,7.11,21.01,17.5,18.79,31.16-3.53,20.11-32.21,30.97-58.59,30.38-30.92,1.57-62.59-7.21-67.59-29.89-2.38-12.44,4.08-22.63,15.47-29.87,9.98-7.05,31.63-10.85,47.3-9.97h.15ZM395.69,138.5c-9.65-.19-24.13.15-30.69,7.41-4.43,5.48.87,12.31,16.09,14.29,3.81.49,7.49.68,11.25.59,6.49-.13,12.53.33,18.96-.67,20.07-2.79,22.5-13.93,7.81-19.03-6.68-2.39-15.98-2.81-23.26-2.58h-.17ZM631.18,6.67c.7,27.95.02,118.84.25,126.65.13,1.86-1.66,4.37-3.49,5.27-1.92.97-3.6.72-6.83.76-3.94,0-9.72,0-12.86,0-1.65-.01-3.27.05-4.77-.69-4.37-1.86-2.77-8.27-6.89-9.99-9.24-4.19-30.11,5.12-29.83-8.26-.22-9.18-.57-14.69,10.49-13.77,4.01,0,8.27,0,12.3,0,3.11-.05,4.7.19,6.56-.63,2.03-.89,3.93-3.55,3.75-5.58,0-8.06,0-83.99,0-92.05-.13-1.46.88-3.39,2.17-4.51,2.61-2.22,4.46-1.58,8.87-1.7,1.88,0,3.82,0,5.72,0,3.83.26,8.33-.74,11.59.91,1.28.76,2.42,2.13,2.93,3.48l.04.1ZM635.28,161.6c.17.98.2,2,.22,3.01-.08,5.23,1.47,13.39-3.13,16.24-9.89,2.17-122.54.13-131.5.81-2.2-.07-4.73-2.14-5.46-4.32-.69-2.21-.21-5.22-.34-7.8.3-12.27-.55-29.14.31-38.95,2.54-6.57,12.64-3.56,18.72-4.35,6.24-.55,5.82-7.8,5.67-13.21.18-5.48-2.31-8.56-8.01-8.32-9.34.22-18.42.43-26.99.45-2.04-.02-4.28-.11-5.86-1.49-2.85-2.41-3.2-8.83-3.67-12.87-.28-2.61-.75-4.93.22-7.02,1.18-2.7,4.5-3.4,7.22-3.39,30.91.16,69.17-2.16,103.22-4.5,3.79.74,4.66,4.62,4.81,7.9.37,4.3,1.38,10.26-1.44,12.76-1.18,1.11-2.88,1.62-4.45,1.96-4.05.84-8.8,1.51-13.27,1.93-17.19,1.65-19.96-1.41-20.13,14.81-.06,4.52.1,9.13.11,13.39-.02,1.77-.24,3.83-1.38,5.19-2.59,3.22-9.83,2.41-14.59,2.34-6.92-.48-8.83,3.27-8.69,9.61-.25,5.03.62,10.26,6.15,10.58,7.93,0,89.64,0,96.6,0,2.46,0,5.2,2.25,5.64,5.06l.03.17ZM532.98,7.5c24.53-.81,48.66,13.61,44.7,38.44-3.94,18.26-21.32,27.54-44.56,27.43-20.48.86-41.92-8.38-45.44-27.36-4.16-25.18,20.8-39.38,45.03-38.5h.27ZM532.7,30.35c-7.64-.25-16.89,3.21-15.97,11.6.92,6.18,8.54,8.86,15.2,8.76,5.55.34,12.99-1.33,15.36-5.52,2.64-3.97,1.27-9-2.65-11.78-2.6-2.1-7.7-3.14-11.66-3.06h-.27ZM796.35,6.82c.66,7.11.04,30.72.25,38.65-.02,1.58,0,3.25,1.21,4.75,4.91,5.76,14.96-.47,19.97,5.05,2.21,2.33,1.29,7.81,1.48,11.99.1,5.57.59,11.42-6.66,11.94-5.2.35-14.5-1.61-15.89,5.13-.21,1.4-.08,3.67-.11,5.55,0,9.98,0,30.58,0,37.88.25,2.69-1.38,5.42-3.89,6.5-2.6,1.04-7.68.39-11.13.57-2.46,0-5.65,0-7.76,0-2.37-.01-3.85.07-5.47-.76-1.82-.88-3.61-3.47-3.48-5.2.2-9.79-.33-95.21.16-121.9.7-2.5,3.38-4.76,6.16-4.73,3.24-.1,6.74-.02,10.11-.04,3.58.18,8.84-.51,11.55.63,1.57.73,2.95,2.27,3.47,3.89l.04.11ZM802.07,161.54c.29,1.63.21,3.37.3,5.42.2,6.02.82,14.05-5.9,14.58-29.5,0-83.89,0-114.98,0-3.16-.07-6.17-3.44-5.95-6.62,0-3.86,0-18.44,0-30.5,0-5.23,0-8.99,0-13.44.07-1.72-.14-3.23.19-4.52.66-2.46,2.97-4.52,5.52-4.74,4.82-.27,13.31-.01,18.3-.1,3.09-.27,6.41.92,7.63,4.01.65,1.65.48,3.06.51,5.62,0,4.58,0,12.43,0,16.45-.18,3.34.41,5.94,3.17,7.7,1.02.68,2.19.97,3.21.91,8.49,0,73.55,0,82.31,0,2.48.01,5.17,2.23,5.65,5.05l.03.17ZM883.21,9.13c20.51-.15,38.24,10.98,45.71,27.66,2.86,5.27,9.44,3.68,14.54,3.99,13.83-.08,12.7-2.66,12.16-17.25-.17-4.26-.24-8.84-.11-12.77-.16-5.5,2.18-9.45,8.08-8.96,3.86,0,12.42,0,16,0,3.49-.39,7.11,1.97,7.55,5.36.14,7.54-.01,78.36.04,86.61.19,2-1.68,4.78-3.77,5.61-1.89.79-3.44.52-6.74.58-2.6,0-5.32,0-7.93,0-3.16-.14-6.94.42-9.34-.58-2.23-.98-3.75-3.33-3.74-5.73-.06-4.42,0-14.37-.02-19.83.37-3.81-1.08-7.74-5.28-8.4-3.69-.35-7.64-.07-11.41-.16-3.28.04-5.06-.19-6.97.92-1.77,1.03-2.85,2.88-3.73,4.7-3.32,7.13-8.47,13.18-15,17.69-9.81,6.92-22.89,9.8-35.27,8.81-60.96-4.4-55.59-89.99,5.01-88.24h.23ZM883.16,35.24c-27.36-.76-24.24,39.65,2.51,35.87,15.13-.45,21.16-19.36,12.13-30.14-3-3.88-8.98-5.93-14.4-5.73h-.24ZM893.68,112.7c.67,5.82,2.34,9.06,8.87,8.53,12.63,0,30.86,0,41.68,0,4.29-.09,8.94.96,10.77-4.15,1.77-11.18,4.22-9.76,14.57-9.84,2.33,0,4.72,0,7.04,0,5.08-.17,8.42,0,10.26,4.47.8,17.38.02,43.02.28,61.61-.11,1.68.22,3.1-.25,4.64-.43,2.08-3.56,4.54-5.21,4.55-8.68.1-103.15-.02-112.54.03-2.39.12-5.11-2.13-5.88-4.47-.65-3.08-.12-6.71-.28-10.01-.04-12.4.03-40.89,0-52.93-.55-4.6,2.71-8.19,7.52-7.88,4.1-.01,8.6,0,12.78,0,5.25-.22,9.24.1,10.35,5.28l.04.18ZM898.33,156.92c8.28.49,21.79.03,31.81.18,8.72,0,16.56,0,19.21,0,1.61.09,3.26-.47,4.5-1.63,3.66-3.36,1.35-9.96-3.62-10.18-6.33-.06-43.45,0-50.11-.02-7.01-.23-8.67,9.62-1.89,11.62l.11.03Z"/>
        <g id="_도형화" data-name="ㅅ 도형화">
          <path class="cls-11" d="M694.19,112.03c-7.59-.02-22.37,2.68-22.08-8.78.01-4.22-.48-9.02-.03-13.84.6-7.08,4.13-9.7,11.03-9.33,5.35-.07,12.85-.79,16.53,2.5,2.21,1.91,2.43,5.14,2.41,7.89-.13,6.76,2.5,20.84-7.68,21.54l-.18.02Z"/>
          <path class="cls-1" d="M741.19,112.03c-7.59-.02-22.37,2.68-22.08-8.78.01-4.22-.48-9.02-.03-13.84.6-7.08,4.13-9.7,11.03-9.33,5.35-.07,12.85-.79,16.53,2.5,2.21,1.91,2.43,5.14,2.41,7.89-.13,6.76,2.5,20.84-7.68,21.54l-.18.02Z"/>
          <path class="cls-17" d="M737.87,71.99c-11.4.33-46.85.01-52.76.12-11.24.37-9.12-13.84-9.02-22.35-.29-5.48,3.7-9.84,9.11-9.65,7.38.11,38.35-.19,52.37.1,6.71,1.15,7.79,6.62,7.53,12.61.16,6.56,1.47,17.82-7.12,19.15l-.12.02Z"/>
          <path class="cls-12" d="M726.75,32c-8.18.3-24.08.01-29.97.11-6.63.32-10.23-4.56-9.71-10.96-.21-10.52-2.01-22.42,11.8-21.04,7.3,0,21.82,0,25.89,0,3.31-.15,7.13,1.65,8.46,4.96,1.35,3.44.67,7.25.99,10.9.29,5.88.12,15.22-7.32,16.01l-.13.02Z"/>
        </g>
      </g>
      <g>
        <path class="cls-19" d="M7.2,5.28c21.2-.5,100.51,0,112.06-.17,3.85-.07,7.89,3.12,8.58,7.07.57,7.69.06,16.18.22,24.03-.02,4.4.01,7.65,0,11.2.24,4.2-.44,7.88-3.99,10.2-2.22,1.27-3.25,1.46-4.7,1.5-10.19-.66-103.78,1.35-114.08-.84C-.01,55.96-.16,50.61.07,45.67c0-7.15,0-20.3,0-27.34C-.27,12.48.47,7.02,7.1,5.31l.1-.02Z"/>
        <path class="cls-19" d="M7.2,129.28c21.2-.5,100.51,0,112.06-.17,3.85-.07,7.89,3.12,8.58,7.07.57,7.69.06,16.18.22,24.03-.02,4.4.01,7.65,0,11.2.24,4.2-.44,7.88-3.99,10.2-2.22,1.27-3.25,1.46-4.7,1.5-10.19-.66-103.78,1.35-114.08-.84C-.01,179.96-.16,174.61.07,169.67c0-7.15,0-20.3,0-27.34-.34-5.86.4-11.31,7.03-13.03l.1-.02Z"/>
        <path class="cls-19" d="M149.2,5.28c21.2-.5,100.51,0,112.06-.17,3.85-.07,7.89,3.12,8.58,7.07.57,7.69.06,16.18.22,24.03-.02,4.4.01,7.65,0,11.2.24,4.2-.44,7.88-3.99,10.2-2.22,1.27-3.25,1.46-4.7,1.5-10.19-.66-103.78,1.35-114.08-.84-5.3-2.31-5.45-7.67-5.22-12.6,0-7.15,0-20.3,0-27.34-.34-5.86.4-11.31,7.03-13.03l.1-.02Z"/>
        <path class="cls-19" d="M149.2,67.28c21.2-.5,100.51,0,112.06-.17,3.85-.07,7.89,3.12,8.58,7.07.57,7.69.06,16.18.22,24.03-.02,4.4.01,7.65,0,11.2.24,4.2-.44,7.88-3.99,10.2-2.22,1.27-3.25,1.46-4.7,1.5-10.19-.66-103.78,1.35-114.08-.84-5.3-2.31-5.45-7.67-5.22-12.6,0-7.15,0-20.3,0-27.34-.34-5.86.4-11.31,7.03-13.03l.1-.02Z"/>
        <path class="cls-19" d="M149.38,129.26c10.06-.42,32.62,0,40.07-.15,5.62-.4,10.06,4.34,9.62,9.73-.01,5.63,0,24.23,0,32.95.64,7.62-3.81,11.98-11.44,11.32-9.4.01-30.11,0-35.94,0-2.24.11-4.61-.57-6.42-2-2.52-2.14-3.27-4.87-3.2-7.73,0-3.6,0-13.88,0-22.52,0-4.29,0-7.62,0-11.21-.47-4.59,2.13-9.49,7.19-10.36l.12-.02Z"/>
        <path class="cls-19" d="M7.38,67.26c10.06-.42,32.62,0,40.07-.15,5.62-.4,10.06,4.34,9.62,9.73-.01,5.63,0,24.23,0,32.95.64,7.62-3.81,11.98-11.44,11.32-9.4.01-30.11,0-35.94,0-2.24.11-4.61-.57-6.42-2C.75,116.96,0,114.24.07,111.38c0-3.6,0-13.88,0-22.52,0-4.29,0-7.62,0-11.21-.47-4.59,2.13-9.49,7.19-10.36l.12-.02Z"/>
        <path class="cls-19" d="M220.38,129.26c10.06-.42,32.62,0,40.07-.15,5.62-.4,10.06,4.34,9.62,9.73-.01,5.63,0,24.23,0,32.95.64,7.62-3.81,11.98-11.44,11.32-9.4.01-30.11,0-35.94,0-2.24.11-4.61-.57-6.42-2-2.52-2.14-3.27-4.87-3.2-7.73,0-3.6,0-13.88,0-22.52,0-4.29,0-7.62,0-11.21-.47-4.59,2.13-9.49,7.19-10.36l.12-.02Z"/>
        <path class="cls-19" d="M78.38,67.26c10.06-.42,32.62,0,40.07-.15,5.62-.4,10.06,4.34,9.62,9.73-.01,5.63,0,24.23,0,32.95.64,7.62-3.81,11.98-11.44,11.32-9.4.01-30.11,0-35.94,0-2.24.11-4.61-.57-6.42-2-2.52-2.14-3.27-4.87-3.2-7.73,0-3.6,0-13.88,0-22.52,0-4.29,0-7.62,0-11.21-.47-4.59,2.13-9.49,7.19-10.36l.12-.02Z"/>
        <path class="cls-19" d="M396.88,32.96c-17.22.4-71.41.04-78.58.14-.45-.02-1.06-.08-1.87-.3-7.01-1.56-6.59-10.37-6.43-16.91-.2-4.95,1.92-9.6,7.16-10.61,16.65-.49,69.12,0,78.05-.17,1.04,0,1.6.03,3.05.48,6.45,1.88,5.99,10.26,5.88,16.54.21,5.18-1.9,9.77-7.15,10.81l-.11.02Z"/>
        <path class="cls-19" d="M397.88,103.96c-17.22.4-71.41.04-78.58.14-.45-.02-1.06-.08-1.87-.3-7.01-1.56-6.59-10.37-6.43-16.91-.2-4.95,1.92-9.6,7.16-10.61,16.65-.49,69.12,0,78.05-.17,1.04,0,1.6.03,3.05.48,6.45,1.88,5.99,10.26,5.88,16.54.21,5.18-1.9,9.77-7.15,10.81l-.11.02Z"/>
        <path class="cls-19" d="M343.19,70.03c-7.59-.02-22.37,2.68-22.08-8.78.01-4.22-.48-9.02-.03-13.84.6-7.08,4.13-9.7,11.03-9.33,5.35-.07,12.85-.79,16.53,2.5,2.21,1.91,2.43,5.14,2.41,7.89-.13,6.76,2.5,20.84-7.68,21.54l-.18.02Z"/>
        <path class="cls-19" d="M386.19,70.03c-7.59-.02-22.37,2.68-22.08-8.78.01-4.22-.48-9.02-.03-13.84.6-7.08,4.13-9.7,11.03-9.33,5.35-.07,12.85-.79,16.53,2.5,2.21,1.91,2.43,5.14,2.41,7.89-.13,6.76,2.5,20.84-7.68,21.54l-.18.02Z"/>
        <path class="cls-19" d="M459,6.32c.66,20.21.01,86.52.23,100.51.06,2-1.85,4.57-3.9,5.38-2.67,1.02-7.92.36-11.45.54-9.93-.33-16.76,2.68-16.26-10.91-.04-3.39.69-7.29-1.39-9.98-1.63-2.11-4.77-2.17-7.33-2.4-7.64-.34-8.24-3.7-7.96-11.72.05-5.76-1.04-12.07,5.73-12.8,2.66-.44,5.94-.16,8.27-1.51,3.24-1.75,2.74-7.61-.96-8.63-2.92-1.07-6.56-.47-9.51-1.62-4.3-1.72-3.45-6.6-3.54-11.51.08-4.33-.51-8.3,2-10.27,2.78-2.38,6.89-1.43,10.17-2.27,4.1-1.17,4.75-4.43,4.58-8.57,0-3,0-7.34,0-10.57-.24-9.52,6.63-8.15,13.66-8.19,2.43,0,4.93,0,7.35,0,5.08-.19,8.4-.01,10.26,4.43l.03.1ZM395.85,114.86c14.4-.72,34.31,2.25,44.47,8.19,13.14,7.11,21.01,17.5,18.79,31.16-3.53,20.11-32.21,30.97-58.59,30.38-30.92,1.57-62.59-7.21-67.59-29.89-2.38-12.44,4.08-22.63,15.47-29.87,9.98-7.05,31.63-10.85,47.3-9.97h.15ZM395.69,138.5c-9.65-.19-24.13.15-30.69,7.41-4.43,5.48.87,12.31,16.09,14.29,3.81.49,7.49.68,11.25.59,6.49-.13,12.53.33,18.96-.67,20.07-2.79,22.5-13.93,7.81-19.03-6.68-2.39-15.98-2.81-23.26-2.58h-.17ZM631.18,6.67c.7,27.95.02,118.84.25,126.65.13,1.86-1.66,4.37-3.49,5.27-1.92.97-3.6.72-6.83.76-3.94,0-9.72,0-12.86,0-1.65-.01-3.27.05-4.77-.69-4.37-1.86-2.77-8.27-6.89-9.99-9.24-4.19-30.11,5.12-29.83-8.26-.22-9.18-.57-14.69,10.49-13.77,4.01,0,8.27,0,12.3,0,3.11-.05,4.7.19,6.56-.63,2.03-.89,3.93-3.55,3.75-5.58,0-8.06,0-83.99,0-92.05-.13-1.46.88-3.39,2.17-4.51,2.61-2.22,4.46-1.58,8.87-1.7,1.88,0,3.82,0,5.72,0,3.83.26,8.33-.74,11.59.91,1.28.76,2.42,2.13,2.93,3.48l.04.1ZM635.28,161.6c.17.98.2,2,.22,3.01-.08,5.23,1.47,13.39-3.13,16.24-9.89,2.17-122.54.13-131.5.81-2.2-.07-4.73-2.14-5.46-4.32-.69-2.21-.21-5.22-.34-7.8.3-12.27-.55-29.14.31-38.95,2.54-6.57,12.64-3.56,18.72-4.35,6.24-.55,5.82-7.8,5.67-13.21.18-5.48-2.31-8.56-8.01-8.32-9.34.22-18.42.43-26.99.45-2.04-.02-4.28-.11-5.86-1.49-2.85-2.41-3.2-8.83-3.67-12.87-.28-2.61-.75-4.93.22-7.02,1.18-2.7,4.5-3.4,7.22-3.39,30.91.16,69.17-2.16,103.22-4.5,3.79.74,4.66,4.62,4.81,7.9.37,4.3,1.38,10.26-1.44,12.76-1.18,1.11-2.88,1.62-4.45,1.96-4.05.84-8.8,1.51-13.27,1.93-17.19,1.65-19.96-1.41-20.13,14.81-.06,4.52.1,9.13.11,13.39-.02,1.77-.24,3.83-1.38,5.19-2.59,3.22-9.83,2.41-14.59,2.34-6.92-.48-8.83,3.27-8.69,9.61-.25,5.03.62,10.26,6.15,10.58,7.93,0,89.64,0,96.6,0,2.46,0,5.2,2.25,5.64,5.06l.03.17ZM532.98,7.5c24.53-.81,48.66,13.61,44.7,38.44-3.94,18.26-21.32,27.54-44.56,27.43-20.48.86-41.92-8.38-45.44-27.36-4.16-25.18,20.8-39.38,45.03-38.5h.27ZM532.7,30.35c-7.64-.25-16.89,3.21-15.97,11.6.92,6.18,8.54,8.86,15.2,8.76,5.55.34,12.99-1.33,15.36-5.52,2.64-3.97,1.27-9-2.65-11.78-2.6-2.1-7.7-3.14-11.66-3.06h-.27ZM796.35,6.82c.66,7.11.04,30.72.25,38.65-.02,1.58,0,3.25,1.21,4.75,4.91,5.76,14.96-.47,19.97,5.05,2.21,2.33,1.29,7.81,1.48,11.99.1,5.57.59,11.42-6.66,11.94-5.2.35-14.5-1.61-15.89,5.13-.21,1.4-.08,3.67-.11,5.55,0,9.98,0,30.58,0,37.88.25,2.69-1.38,5.42-3.89,6.5-2.6,1.04-7.68.39-11.13.57-2.46,0-5.65,0-7.76,0-2.37-.01-3.85.07-5.47-.76-1.82-.88-3.61-3.47-3.48-5.2.2-9.79-.33-95.21.16-121.9.7-2.5,3.38-4.76,6.16-4.73,3.24-.1,6.74-.02,10.11-.04,3.58.18,8.84-.51,11.55.63,1.57.73,2.95,2.27,3.47,3.89l.04.11ZM802.07,161.54c.29,1.63.21,3.37.3,5.42.2,6.02.82,14.05-5.9,14.58-29.5,0-83.89,0-114.98,0-3.16-.07-6.17-3.44-5.95-6.62,0-3.86,0-18.44,0-30.5,0-5.23,0-8.99,0-13.44.07-1.72-.14-3.23.19-4.52.66-2.46,2.97-4.52,5.52-4.74,4.82-.27,13.31-.01,18.3-.1,3.09-.27,6.41.92,7.63,4.01.65,1.65.48,3.06.51,5.62,0,4.58,0,12.43,0,16.45-.18,3.34.41,5.94,3.17,7.7,1.02.68,2.19.97,3.21.91,8.49,0,73.55,0,82.31,0,2.48.01,5.17,2.23,5.65,5.05l.03.17ZM883.21,9.13c20.51-.15,38.24,10.98,45.71,27.66,2.86,5.27,9.44,3.68,14.54,3.99,13.83-.08,12.7-2.66,12.16-17.25-.17-4.26-.24-8.84-.11-12.77-.16-5.5,2.18-9.45,8.08-8.96,3.86,0,12.42,0,16,0,3.49-.39,7.11,1.97,7.55,5.36.14,7.54-.01,78.36.04,86.61.19,2-1.68,4.78-3.77,5.61-1.89.79-3.44.52-6.74.58-2.6,0-5.32,0-7.93,0-3.16-.14-6.94.42-9.34-.58-2.23-.98-3.75-3.33-3.74-5.73-.06-4.42,0-14.37-.02-19.83.37-3.81-1.08-7.74-5.28-8.4-3.69-.35-7.64-.07-11.41-.16-3.28.04-5.06-.19-6.97.92-1.77,1.03-2.85,2.88-3.73,4.7-3.32,7.13-8.47,13.18-15,17.69-9.81,6.92-22.89,9.8-35.27,8.81-60.96-4.4-55.59-89.99,5.01-88.24h.23ZM883.16,35.24c-27.36-.76-24.24,39.65,2.51,35.87,15.13-.45,21.16-19.36,12.13-30.14-3-3.88-8.98-5.93-14.4-5.73h-.24ZM893.68,112.7c.67,5.82,2.34,9.06,8.87,8.53,12.63,0,30.86,0,41.68,0,4.29-.09,8.94.96,10.77-4.15,1.77-11.18,4.22-9.76,14.57-9.84,2.33,0,4.72,0,7.04,0,5.08-.17,8.42,0,10.26,4.47.8,17.38.02,43.02.28,61.61-.11,1.68.22,3.1-.25,4.64-.43,2.08-3.56,4.54-5.21,4.55-8.68.1-103.15-.02-112.54.03-2.39.12-5.11-2.13-5.88-4.47-.65-3.08-.12-6.71-.28-10.01-.04-12.4.03-40.89,0-52.93-.55-4.6,2.71-8.19,7.52-7.88,4.1-.01,8.6,0,12.78,0,5.25-.22,9.24.1,10.35,5.28l.04.18ZM898.33,156.92c8.28.49,21.79.03,31.81.18,8.72,0,16.56,0,19.21,0,1.61.09,3.26-.47,4.5-1.63,3.66-3.36,1.35-9.96-3.62-10.18-6.33-.06-43.45,0-50.11-.02-7.01-.23-8.67,9.62-1.89,11.62l.11.03Z"/>
        <g id="_도형화-2" data-name="ㅅ 도형화">
          <path class="cls-19" d="M694.19,112.03c-7.59-.02-22.37,2.68-22.08-8.78.01-4.22-.48-9.02-.03-13.84.6-7.08,4.13-9.7,11.03-9.33,5.35-.07,12.85-.79,16.53,2.5,2.21,1.91,2.43,5.14,2.41,7.89-.13,6.76,2.5,20.84-7.68,21.54l-.18.02Z"/>
          <path class="cls-19" d="M741.19,112.03c-7.59-.02-22.37,2.68-22.08-8.78.01-4.22-.48-9.02-.03-13.84.6-7.08,4.13-9.7,11.03-9.33,5.35-.07,12.85-.79,16.53,2.5,2.21,1.91,2.43,5.14,2.41,7.89-.13,6.76,2.5,20.84-7.68,21.54l-.18.02Z"/>
          <path class="cls-19" d="M737.87,71.99c-11.4.33-46.85.01-52.76.12-11.24.37-9.12-13.84-9.02-22.35-.29-5.48,3.7-9.84,9.11-9.65,7.38.11,38.35-.19,52.37.1,6.71,1.15,7.79,6.62,7.53,12.61.16,6.56,1.47,17.82-7.12,19.15l-.12.02Z"/>
          <path class="cls-19" d="M726.75,32c-8.18.3-24.08.01-29.97.11-6.63.32-10.23-4.56-9.71-10.96-.21-10.52-2.01-22.42,11.8-21.04,7.3,0,21.82,0,25.89,0,3.31-.15,7.13,1.65,8.46,4.96,1.35,3.44.67,7.25.99,10.9.29,5.88.12,15.22-7.32,16.01l-.13.02Z"/>
        </g>
      </g>
      <g>
        <path class="cls-3" d="M7.2,5.28c21.2-.5,100.51,0,112.06-.17,3.85-.07,7.89,3.12,8.58,7.07.57,7.69.06,16.18.22,24.03-.02,4.4.01,7.65,0,11.2.24,4.2-.44,7.88-3.99,10.2-2.22,1.27-3.25,1.46-4.7,1.5-10.19-.66-103.78,1.35-114.08-.84C-.01,55.96-.16,50.61.07,45.67c0-7.15,0-20.3,0-27.34C-.27,12.48.47,7.02,7.1,5.31l.1-.02Z"/>
        <path class="cls-3" d="M7.2,129.28c21.2-.5,100.51,0,112.06-.17,3.85-.07,7.89,3.12,8.58,7.07.57,7.69.06,16.18.22,24.03-.02,4.4.01,7.65,0,11.2.24,4.2-.44,7.88-3.99,10.2-2.22,1.27-3.25,1.46-4.7,1.5-10.19-.66-103.78,1.35-114.08-.84C-.01,179.96-.16,174.61.07,169.67c0-7.15,0-20.3,0-27.34-.34-5.86.4-11.31,7.03-13.03l.1-.02Z"/>
        <path class="cls-3" d="M149.2,5.28c21.2-.5,100.51,0,112.06-.17,3.85-.07,7.89,3.12,8.58,7.07.57,7.69.06,16.18.22,24.03-.02,4.4.01,7.65,0,11.2.24,4.2-.44,7.88-3.99,10.2-2.22,1.27-3.25,1.46-4.7,1.5-10.19-.66-103.78,1.35-114.08-.84-5.3-2.31-5.45-7.67-5.22-12.6,0-7.15,0-20.3,0-27.34-.34-5.86.4-11.31,7.03-13.03l.1-.02Z"/>
        <path class="cls-3" d="M149.2,67.28c21.2-.5,100.51,0,112.06-.17,3.85-.07,7.89,3.12,8.58,7.07.57,7.69.06,16.18.22,24.03-.02,4.4.01,7.65,0,11.2.24,4.2-.44,7.88-3.99,10.2-2.22,1.27-3.25,1.46-4.7,1.5-10.19-.66-103.78,1.35-114.08-.84-5.3-2.31-5.45-7.67-5.22-12.6,0-7.15,0-20.3,0-27.34-.34-5.86.4-11.31,7.03-13.03l.1-.02Z"/>
        <path class="cls-3" d="M149.38,129.26c10.06-.42,32.62,0,40.07-.15,5.62-.4,10.06,4.34,9.62,9.73-.01,5.63,0,24.23,0,32.95.64,7.62-3.81,11.98-11.44,11.32-9.4.01-30.11,0-35.94,0-2.24.11-4.61-.57-6.42-2-2.52-2.14-3.27-4.87-3.2-7.73,0-3.6,0-13.88,0-22.52,0-4.29,0-7.62,0-11.21-.47-4.59,2.13-9.49,7.19-10.36l.12-.02Z"/>
        <path class="cls-3" d="M7.38,67.26c10.06-.42,32.62,0,40.07-.15,5.62-.4,10.06,4.34,9.62,9.73-.01,5.63,0,24.23,0,32.95.64,7.62-3.81,11.98-11.44,11.32-9.4.01-30.11,0-35.94,0-2.24.11-4.61-.57-6.42-2C.75,116.96,0,114.24.07,111.38c0-3.6,0-13.88,0-22.52,0-4.29,0-7.62,0-11.21-.47-4.59,2.13-9.49,7.19-10.36l.12-.02Z"/>
        <path class="cls-3" d="M220.38,129.26c10.06-.42,32.62,0,40.07-.15,5.62-.4,10.06,4.34,9.62,9.73-.01,5.63,0,24.23,0,32.95.64,7.62-3.81,11.98-11.44,11.32-9.4.01-30.11,0-35.94,0-2.24.11-4.61-.57-6.42-2-2.52-2.14-3.27-4.87-3.2-7.73,0-3.6,0-13.88,0-22.52,0-4.29,0-7.62,0-11.21-.47-4.59,2.13-9.49,7.19-10.36l.12-.02Z"/>
        <path class="cls-3" d="M78.38,67.26c10.06-.42,32.62,0,40.07-.15,5.62-.4,10.06,4.34,9.62,9.73-.01,5.63,0,24.23,0,32.95.64,7.62-3.81,11.98-11.44,11.32-9.4.01-30.11,0-35.94,0-2.24.11-4.61-.57-6.42-2-2.52-2.14-3.27-4.87-3.2-7.73,0-3.6,0-13.88,0-22.52,0-4.29,0-7.62,0-11.21-.47-4.59,2.13-9.49,7.19-10.36l.12-.02Z"/>
        <path class="cls-3" d="M396.88,32.96c-17.22.4-71.41.04-78.58.14-.45-.02-1.06-.08-1.87-.3-7.01-1.56-6.59-10.37-6.43-16.91-.2-4.95,1.92-9.6,7.16-10.61,16.65-.49,69.12,0,78.05-.17,1.04,0,1.6.03,3.05.48,6.45,1.88,5.99,10.26,5.88,16.54.21,5.18-1.9,9.77-7.15,10.81l-.11.02Z"/>
        <path class="cls-3" d="M397.88,103.96c-17.22.4-71.41.04-78.58.14-.45-.02-1.06-.08-1.87-.3-7.01-1.56-6.59-10.37-6.43-16.91-.2-4.95,1.92-9.6,7.16-10.61,16.65-.49,69.12,0,78.05-.17,1.04,0,1.6.03,3.05.48,6.45,1.88,5.99,10.26,5.88,16.54.21,5.18-1.9,9.77-7.15,10.81l-.11.02Z"/>
        <path class="cls-3" d="M343.19,70.03c-7.59-.02-22.37,2.68-22.08-8.78.01-4.22-.48-9.02-.03-13.84.6-7.08,4.13-9.7,11.03-9.33,5.35-.07,12.85-.79,16.53,2.5,2.21,1.91,2.43,5.14,2.41,7.89-.13,6.76,2.5,20.84-7.68,21.54l-.18.02Z"/>
        <path class="cls-3" d="M386.19,70.03c-7.59-.02-22.37,2.68-22.08-8.78.01-4.22-.48-9.02-.03-13.84.6-7.08,4.13-9.7,11.03-9.33,5.35-.07,12.85-.79,16.53,2.5,2.21,1.91,2.43,5.14,2.41,7.89-.13,6.76,2.5,20.84-7.68,21.54l-.18.02Z"/>
        <path class="cls-3" d="M459,6.32c.66,20.21.01,86.52.23,100.51.06,2-1.85,4.57-3.9,5.38-2.67,1.02-7.92.36-11.45.54-9.93-.33-16.76,2.68-16.26-10.91-.04-3.39.69-7.29-1.39-9.98-1.63-2.11-4.77-2.17-7.33-2.4-7.64-.34-8.24-3.7-7.96-11.72.05-5.76-1.04-12.07,5.73-12.8,2.66-.44,5.94-.16,8.27-1.51,3.24-1.75,2.74-7.61-.96-8.63-2.92-1.07-6.56-.47-9.51-1.62-4.3-1.72-3.45-6.6-3.54-11.51.08-4.33-.51-8.3,2-10.27,2.78-2.38,6.89-1.43,10.17-2.27,4.1-1.17,4.75-4.43,4.58-8.57,0-3,0-7.34,0-10.57-.24-9.52,6.63-8.15,13.66-8.19,2.43,0,4.93,0,7.35,0,5.08-.19,8.4-.01,10.26,4.43l.03.1ZM395.85,114.86c14.4-.72,34.31,2.25,44.47,8.19,13.14,7.11,21.01,17.5,18.79,31.16-3.53,20.11-32.21,30.97-58.59,30.38-30.92,1.57-62.59-7.21-67.59-29.89-2.38-12.44,4.08-22.63,15.47-29.87,9.98-7.05,31.63-10.85,47.3-9.97h.15ZM395.69,138.5c-9.65-.19-24.13.15-30.69,7.41-4.43,5.48.87,12.31,16.09,14.29,3.81.49,7.49.68,11.25.59,6.49-.13,12.53.33,18.96-.67,20.07-2.79,22.5-13.93,7.81-19.03-6.68-2.39-15.98-2.81-23.26-2.58h-.17ZM631.18,6.67c.7,27.95.02,118.84.25,126.65.13,1.86-1.66,4.37-3.49,5.27-1.92.97-3.6.72-6.83.76-3.94,0-9.72,0-12.86,0-1.65-.01-3.27.05-4.77-.69-4.37-1.86-2.77-8.27-6.89-9.99-9.24-4.19-30.11,5.12-29.83-8.26-.22-9.18-.57-14.69,10.49-13.77,4.01,0,8.27,0,12.3,0,3.11-.05,4.7.19,6.56-.63,2.03-.89,3.93-3.55,3.75-5.58,0-8.06,0-83.99,0-92.05-.13-1.46.88-3.39,2.17-4.51,2.61-2.22,4.46-1.58,8.87-1.7,1.88,0,3.82,0,5.72,0,3.83.26,8.33-.74,11.59.91,1.28.76,2.42,2.13,2.93,3.48l.04.1ZM635.28,161.6c.17.98.2,2,.22,3.01-.08,5.23,1.47,13.39-3.13,16.24-9.89,2.17-122.54.13-131.5.81-2.2-.07-4.73-2.14-5.46-4.32-.69-2.21-.21-5.22-.34-7.8.3-12.27-.55-29.14.31-38.95,2.54-6.57,12.64-3.56,18.72-4.35,6.24-.55,5.82-7.8,5.67-13.21.18-5.48-2.31-8.56-8.01-8.32-9.34.22-18.42.43-26.99.45-2.04-.02-4.28-.11-5.86-1.49-2.85-2.41-3.2-8.83-3.67-12.87-.28-2.61-.75-4.93.22-7.02,1.18-2.7,4.5-3.4,7.22-3.39,30.91.16,69.17-2.16,103.22-4.5,3.79.74,4.66,4.62,4.81,7.9.37,4.3,1.38,10.26-1.44,12.76-1.18,1.11-2.88,1.62-4.45,1.96-4.05.84-8.8,1.51-13.27,1.93-17.19,1.65-19.96-1.41-20.13,14.81-.06,4.52.1,9.13.11,13.39-.02,1.77-.24,3.83-1.38,5.19-2.59,3.22-9.83,2.41-14.59,2.34-6.92-.48-8.83,3.27-8.69,9.61-.25,5.03.62,10.26,6.15,10.58,7.93,0,89.64,0,96.6,0,2.46,0,5.2,2.25,5.64,5.06l.03.17ZM532.98,7.5c24.53-.81,48.66,13.61,44.7,38.44-3.94,18.26-21.32,27.54-44.56,27.43-20.48.86-41.92-8.38-45.44-27.36-4.16-25.18,20.8-39.38,45.03-38.5h.27ZM532.7,30.35c-7.64-.25-16.89,3.21-15.97,11.6.92,6.18,8.54,8.86,15.2,8.76,5.55.34,12.99-1.33,15.36-5.52,2.64-3.97,1.27-9-2.65-11.78-2.6-2.1-7.7-3.14-11.66-3.06h-.27ZM796.35,6.82c.66,7.11.04,30.72.25,38.65-.02,1.58,0,3.25,1.21,4.75,4.91,5.76,14.96-.47,19.97,5.05,2.21,2.33,1.29,7.81,1.48,11.99.1,5.57.59,11.42-6.66,11.94-5.2.35-14.5-1.61-15.89,5.13-.21,1.4-.08,3.67-.11,5.55,0,9.98,0,30.58,0,37.88.25,2.69-1.38,5.42-3.89,6.5-2.6,1.04-7.68.39-11.13.57-2.46,0-5.65,0-7.76,0-2.37-.01-3.85.07-5.47-.76-1.82-.88-3.61-3.47-3.48-5.2.2-9.79-.33-95.21.16-121.9.7-2.5,3.38-4.76,6.16-4.73,3.24-.1,6.74-.02,10.11-.04,3.58.18,8.84-.51,11.55.63,1.57.73,2.95,2.27,3.47,3.89l.04.11ZM802.07,161.54c.29,1.63.21,3.37.3,5.42.2,6.02.82,14.05-5.9,14.58-29.5,0-83.89,0-114.98,0-3.16-.07-6.17-3.44-5.95-6.62,0-3.86,0-18.44,0-30.5,0-5.23,0-8.99,0-13.44.07-1.72-.14-3.23.19-4.52.66-2.46,2.97-4.52,5.52-4.74,4.82-.27,13.31-.01,18.3-.1,3.09-.27,6.41.92,7.63,4.01.65,1.65.48,3.06.51,5.62,0,4.58,0,12.43,0,16.45-.18,3.34.41,5.94,3.17,7.7,1.02.68,2.19.97,3.21.91,8.49,0,73.55,0,82.31,0,2.48.01,5.17,2.23,5.65,5.05l.03.17ZM883.21,9.13c20.51-.15,38.24,10.98,45.71,27.66,2.86,5.27,9.44,3.68,14.54,3.99,13.83-.08,12.7-2.66,12.16-17.25-.17-4.26-.24-8.84-.11-12.77-.16-5.5,2.18-9.45,8.08-8.96,3.86,0,12.42,0,16,0,3.49-.39,7.11,1.97,7.55,5.36.14,7.54-.01,78.36.04,86.61.19,2-1.68,4.78-3.77,5.61-1.89.79-3.44.52-6.74.58-2.6,0-5.32,0-7.93,0-3.16-.14-6.94.42-9.34-.58-2.23-.98-3.75-3.33-3.74-5.73-.06-4.42,0-14.37-.02-19.83.37-3.81-1.08-7.74-5.28-8.4-3.69-.35-7.64-.07-11.41-.16-3.28.04-5.06-.19-6.97.92-1.77,1.03-2.85,2.88-3.73,4.7-3.32,7.13-8.47,13.18-15,17.69-9.81,6.92-22.89,9.8-35.27,8.81-60.96-4.4-55.59-89.99,5.01-88.24h.23ZM883.16,35.24c-27.36-.76-24.24,39.65,2.51,35.87,15.13-.45,21.16-19.36,12.13-30.14-3-3.88-8.98-5.93-14.4-5.73h-.24ZM893.68,112.7c.67,5.82,2.34,9.06,8.87,8.53,12.63,0,30.86,0,41.68,0,4.29-.09,8.94.96,10.77-4.15,1.77-11.18,4.22-9.76,14.57-9.84,2.33,0,4.72,0,7.04,0,5.08-.17,8.42,0,10.26,4.47.8,17.38.02,43.02.28,61.61-.11,1.68.22,3.1-.25,4.64-.43,2.08-3.56,4.54-5.21,4.55-8.68.1-103.15-.02-112.54.03-2.39.12-5.11-2.13-5.88-4.47-.65-3.08-.12-6.71-.28-10.01-.04-12.4.03-40.89,0-52.93-.55-4.6,2.71-8.19,7.52-7.88,4.1-.01,8.6,0,12.78,0,5.25-.22,9.24.1,10.35,5.28l.04.18ZM898.33,156.92c8.28.49,21.79.03,31.81.18,8.72,0,16.56,0,19.21,0,1.61.09,3.26-.47,4.5-1.63,3.66-3.36,1.35-9.96-3.62-10.18-6.33-.06-43.45,0-50.11-.02-7.01-.23-8.67,9.62-1.89,11.62l.11.03Z"/>
        <g id="_도형화-3" data-name="ㅅ 도형화">
          <path class="cls-3" d="M694.19,112.03c-7.59-.02-22.37,2.68-22.08-8.78.01-4.22-.48-9.02-.03-13.84.6-7.08,4.13-9.7,11.03-9.33,5.35-.07,12.85-.79,16.53,2.5,2.21,1.91,2.43,5.14,2.41,7.89-.13,6.76,2.5,20.84-7.68,21.54l-.18.02Z"/>
          <path class="cls-3" d="M741.19,112.03c-7.59-.02-22.37,2.68-22.08-8.78.01-4.22-.48-9.02-.03-13.84.6-7.08,4.13-9.7,11.03-9.33,5.35-.07,12.85-.79,16.53,2.5,2.21,1.91,2.43,5.14,2.41,7.89-.13,6.76,2.5,20.84-7.68,21.54l-.18.02Z"/>
          <path class="cls-3" d="M737.87,71.99c-11.4.33-46.85.01-52.76.12-11.24.37-9.12-13.84-9.02-22.35-.29-5.48,3.7-9.84,9.11-9.65,7.38.11,38.35-.19,52.37.1,6.71,1.15,7.79,6.62,7.53,12.61.16,6.56,1.47,17.82-7.12,19.15l-.12.02Z"/>
          <path class="cls-3" d="M726.75,32c-8.18.3-24.08.01-29.97.11-6.63.32-10.23-4.56-9.71-10.96-.21-10.52-2.01-22.42,11.8-21.04,7.3,0,21.82,0,25.89,0,3.31-.15,7.13,1.65,8.46,4.96,1.35,3.44.67,7.25.99,10.9.29,5.88.12,15.22-7.32,16.01l-.13.02Z"/>
        </g>
      </g>
    </g>
  </g>
</svg>