<svg width="988" height="185" viewBox="0 0 988 185" fill="none" xmlns="http://www.w3.org/2000/svg">
<g clip-path="url(#clip0_26_2)">
<path d="M86.636 5.22799C107.817 4.7305 187.055 5.22799 198.595 5.05884C202.441 4.98919 206.478 8.16313 207.167 12.0932C207.737 19.7445 207.227 28.1918 207.387 36.0022C207.367 40.3801 207.397 43.6137 207.387 47.1458C207.627 51.3247 206.947 54.9861 203.401 57.2945C201.183 58.5581 200.154 58.7471 198.705 58.7869C188.524 58.1302 95.0184 60.1301 84.7277 57.9511C79.4324 55.6528 79.2826 50.3297 79.5124 45.4146C79.5124 38.3006 79.5124 25.2168 79.5124 18.2123C79.1727 12.3917 79.912 6.95922 86.536 5.25783L86.636 5.23793V5.22799Z" fill="#2A9658"/>
<path d="M86.636 129.228C107.817 128.731 187.055 129.228 198.595 129.059C202.441 128.989 206.478 132.163 207.167 136.093C207.737 143.745 207.227 152.192 207.387 160.002C207.367 164.38 207.397 167.614 207.387 171.146C207.627 175.325 206.947 178.986 203.401 181.294C201.183 182.558 200.154 182.747 198.705 182.787C188.524 182.13 95.0184 184.13 84.7277 181.951C79.4324 179.653 79.2826 174.33 79.5124 169.415C79.5124 162.301 79.5124 149.217 79.5124 142.212C79.1727 136.382 79.912 130.959 86.536 129.248L86.636 129.228Z" fill="#2A9658"/>
<path d="M86.9233 67.1924C97.1391 66.7733 120.049 67.1924 127.614 67.0427C133.321 66.6435 137.83 71.374 137.383 76.7532C137.373 82.3719 137.383 100.935 137.383 109.637C138.033 117.242 133.514 121.593 125.766 120.935C116.22 120.945 95.1894 120.935 89.2691 120.935C86.9944 121.044 84.5876 120.366 82.7496 118.939C80.1906 116.793 79.4289 114.078 79.5 111.224C79.5 107.631 79.5 97.3718 79.5 88.7491C79.5 84.4677 79.5 81.1444 79.5 77.5616C79.0227 72.9808 81.663 68.0906 86.8014 67.2224L86.9233 67.2024V67.1924Z" fill="#2A9658"/>
<path d="M157.923 67.1924C168.139 66.7733 191.049 67.1924 198.614 67.0427C204.321 66.6435 208.83 71.374 208.383 76.7532C208.373 82.3719 208.383 100.935 208.383 109.637C209.033 117.242 204.514 121.593 196.766 120.935C187.22 120.945 166.189 120.935 160.269 120.935C157.994 121.044 155.588 120.366 153.749 118.939C151.19 116.803 150.429 114.078 150.5 111.224C150.5 107.631 150.5 97.3718 150.5 88.7491C150.5 84.4677 150.5 81.1444 150.5 77.5616C150.023 72.9808 152.663 68.0906 157.801 67.2224L157.923 67.2024V67.1924Z" fill="#2A9658"/>
<path d="M396.88 32.9599C379.66 33.3599 325.47 32.9999 318.3 33.0999C317.85 33.0799 317.24 33.0199 316.43 32.7999C309.42 31.2399 309.84 22.4299 310 15.8899C309.8 10.9399 311.92 6.28989 317.16 5.27989C333.81 4.78989 386.28 5.27989 395.21 5.10989C396.25 5.10989 396.81 5.13989 398.26 5.58989C404.71 7.46989 404.25 15.8499 404.14 22.1299C404.35 27.3099 402.24 31.8999 396.99 32.9399L396.88 32.9599Z" fill="#2A9658"/>
<path d="M397.88 103.96C380.66 104.36 326.47 104 319.3 104.1C318.85 104.08 318.24 104.02 317.43 103.8C310.42 102.24 310.84 93.4299 311 86.8899C310.8 81.9399 312.92 77.2899 318.16 76.2799C334.81 75.7899 387.28 76.2799 396.21 76.1099C397.25 76.1099 397.81 76.1399 399.26 76.5899C405.71 78.4699 405.25 86.8499 405.14 93.1299C405.35 98.3099 403.24 102.9 397.99 103.94L397.88 103.96Z" fill="#2A9658"/>
<path d="M343.026 69.7394C335.529 69.7196 320.931 72.3922 321.218 61.0483C321.228 56.8711 320.744 52.1197 321.188 47.3486C321.781 40.3403 325.267 37.7468 332.082 38.1131C337.366 38.0438 344.774 37.3311 348.409 40.5878C350.592 42.4784 350.809 45.6757 350.789 48.3978C350.661 55.0893 353.258 69.0267 343.204 69.7196L343.026 69.7394Z" fill="#2A9658"/>
<path d="M386.19 70.0301C378.6 70.0101 363.82 72.7101 364.11 61.2501C364.12 57.0301 363.63 52.2301 364.08 47.4101C364.68 40.3301 368.21 37.7101 375.11 38.0801C380.46 38.0101 387.96 37.2901 391.64 40.5801C393.85 42.4901 394.07 45.7201 394.05 48.4701C393.92 55.2301 396.55 69.3101 386.37 70.0101L386.19 70.0301Z" fill="#2A9658"/>
<path d="M459 6.31993C459.66 26.5299 459.01 92.8399 459.23 106.83C459.29 108.83 457.38 111.4 455.33 112.21C452.66 113.23 447.41 112.57 443.88 112.75C433.95 112.42 427.12 115.43 427.62 101.84C427.58 98.4499 428.31 94.5499 426.23 91.8599C424.6 89.7499 421.46 89.6899 418.9 89.4599C411.26 89.1199 410.66 85.7599 410.94 77.7399C410.99 71.9799 409.9 65.6699 416.67 64.9399C419.33 64.4999 422.61 64.7799 424.94 63.4299C428.18 61.6799 427.68 55.8199 423.98 54.7999C421.06 53.7299 417.42 54.3299 414.47 53.1799C410.17 51.4599 411.02 46.5799 410.93 41.6699C411.01 37.3399 410.42 33.3699 412.93 31.3999C415.71 29.0199 419.82 29.9699 423.1 29.1299C427.2 27.9599 427.85 24.6999 427.68 20.5599C427.68 17.5599 427.68 13.2199 427.68 9.98993C427.44 0.469934 434.31 1.83993 441.34 1.79993C443.77 1.79993 446.27 1.79993 448.69 1.79993C453.77 1.60993 457.09 1.78993 458.95 6.22993L458.98 6.32993L459 6.31993ZM395.85 114.86C410.25 114.14 430.16 117.11 440.32 123.05C453.46 130.16 461.33 140.55 459.11 154.21C455.58 174.32 426.9 185.18 400.52 184.59C369.6 186.16 337.93 177.38 332.93 154.7C330.55 142.26 337.01 132.07 348.4 124.83C358.38 117.78 380.03 113.98 395.7 114.86H395.85ZM395.69 138.5C386.04 138.31 371.56 138.65 365 145.91C360.57 151.39 365.87 158.22 381.09 160.2C384.9 160.69 388.58 160.88 392.34 160.79C398.83 160.66 404.87 161.12 411.3 160.12C431.37 157.33 433.8 146.19 419.11 141.09C412.43 138.7 403.13 138.28 395.85 138.51H395.68L395.69 138.5ZM635.28 161.6C635.45 162.58 635.48 163.6 635.5 164.61C635.42 169.84 636.97 178 632.37 180.85C622.48 183.02 509.83 180.98 500.87 181.66C498.67 181.59 496.14 179.52 495.41 177.34C494.72 175.13 495.2 172.12 495.07 169.54C495.37 157.27 494.52 140.4 495.38 130.59C497.92 124.02 508.02 127.03 514.1 126.24C520.34 125.69 519.92 118.44 519.77 113.03C519.95 107.55 517.46 104.47 511.76 104.71C502.42 104.93 493.34 105.14 484.77 105.16C482.73 105.14 480.49 105.05 478.91 103.67C476.06 101.26 475.71 94.8399 475.24 90.7999C474.96 88.1899 474.49 85.8699 475.46 83.7799C476.64 81.0799 479.96 80.3799 482.68 80.3899C513.59 80.5499 551.85 78.2299 585.9 75.8899C589.69 76.6299 590.56 80.5099 590.71 83.7899C591.08 88.0899 592.09 94.0499 589.27 96.5499C588.09 97.6599 586.39 98.1699 584.82 98.5099C580.77 99.3499 576.02 100.02 571.55 100.44C554.36 102.09 551.59 99.0299 551.42 115.25C551.36 119.77 551.52 124.38 551.53 128.64C551.51 130.41 551.29 132.47 550.15 133.83C547.56 137.05 540.32 136.24 535.56 136.17C528.64 135.69 526.73 139.44 526.87 145.78C526.62 150.81 527.49 156.04 533.02 156.36C540.95 156.36 622.66 156.36 629.62 156.36C632.08 156.36 634.82 158.61 635.26 161.42L635.29 161.59L635.28 161.6ZM532.98 7.49993C557.51 6.68993 581.64 21.1099 577.68 45.9399C573.74 64.1999 556.36 73.4799 533.12 73.3699C512.64 74.2299 491.2 64.9899 487.68 46.0099C483.52 20.8299 508.48 6.62993 532.71 7.50993H532.98V7.49993ZM532.7 30.3499C525.06 30.0999 515.81 33.5599 516.73 41.9499C517.65 48.1299 525.27 50.8099 531.93 50.7099C537.48 51.0499 544.92 49.3799 547.29 45.1899C549.93 41.2199 548.56 36.1899 544.64 33.4099C542.04 31.3099 536.94 30.2699 532.98 30.3499H532.71H532.7ZM880.21 9.12993C900.72 8.97993 918.45 20.1099 925.92 36.7899C928.78 42.0599 935.36 40.4699 940.46 40.7799C954.29 40.6999 953.16 38.1199 952.62 23.5299C952.45 19.2699 952.38 14.6899 952.51 10.7599C952.35 5.25993 954.69 1.30993 960.59 1.79993C964.45 1.79993 973.01 1.79993 976.59 1.79993C980.08 1.40993 983.7 3.76993 984.14 7.15993C984.28 14.6999 984.13 85.5199 984.18 93.7699C984.37 95.7699 982.5 98.5499 980.41 99.3799C978.52 100.17 976.97 99.8999 973.67 99.9599C971.07 99.9599 968.35 99.9599 965.74 99.9599C962.58 99.8199 958.8 100.38 956.4 99.3799C954.17 98.3999 952.65 96.0499 952.66 93.6499C952.6 89.2299 952.66 79.2799 952.64 73.8199C953.01 70.0099 951.56 66.0799 947.36 65.4199C943.67 65.0699 939.72 65.3499 935.95 65.2599C932.67 65.2999 930.89 65.0699 928.98 66.1799C927.21 67.2099 926.13 69.0599 925.25 70.8799C921.93 78.0099 916.78 84.0599 910.25 88.5699C900.44 95.4899 887.36 98.3699 874.98 97.3799C814.02 92.9799 819.39 7.38993 879.99 9.13993H880.22L880.21 9.12993ZM880.16 35.2399C852.8 34.4799 855.92 74.8899 882.67 71.1099C897.8 70.6599 903.83 51.7499 894.8 40.9699C891.8 37.0899 885.82 35.0399 880.4 35.2399H880.16ZM890.68 112.7C891.35 118.52 893.02 121.76 899.55 121.23C912.18 121.23 930.41 121.23 941.23 121.23C945.52 121.14 950.17 122.19 952 117.08C953.77 105.9 956.22 107.32 966.57 107.24C968.9 107.24 971.29 107.24 973.61 107.24C978.69 107.07 982.03 107.24 983.87 111.71C984.67 129.09 983.89 154.73 984.15 173.32C984.04 175 984.37 176.42 983.9 177.96C983.47 180.04 980.34 182.5 978.69 182.51C970.01 182.61 875.54 182.49 866.15 182.54C863.76 182.66 861.04 180.41 860.27 178.07C859.62 174.99 860.15 171.36 859.99 168.06C859.95 155.66 860.02 127.17 859.99 115.13C859.44 110.53 862.7 106.94 867.51 107.25C871.61 107.24 876.11 107.25 880.29 107.25C885.54 107.03 889.53 107.35 890.64 112.53L890.68 112.71V112.7ZM895.33 156.92C903.61 157.41 917.12 156.95 927.14 157.1C935.86 157.1 943.7 157.1 946.35 157.1C947.96 157.19 949.61 156.63 950.85 155.47C954.51 152.11 952.2 145.51 947.23 145.29C940.9 145.23 903.78 145.29 897.12 145.27C890.11 145.04 888.45 154.89 895.23 156.89L895.34 156.92H895.33Z" fill="#2A9658"/>
<path d="M396.88 32.9599C379.66 33.3599 325.47 32.9999 318.3 33.0999C317.85 33.0799 317.24 33.0199 316.43 32.7999C309.42 31.2399 309.84 22.4299 310 15.8899C309.8 10.9399 311.92 6.28989 317.16 5.27989C333.81 4.78989 386.28 5.27989 395.21 5.10989C396.25 5.10989 396.81 5.13989 398.26 5.58989C404.71 7.46989 404.25 15.8499 404.14 22.1299C404.35 27.3099 402.24 31.8999 396.99 32.9399L396.88 32.9599Z" fill="#2A9658"/>
<path d="M397.88 103.96C380.66 104.36 326.47 104 319.3 104.1C318.85 104.08 318.24 104.02 317.43 103.8C310.42 102.24 310.84 93.4299 311 86.8899C310.8 81.9399 312.92 77.2899 318.16 76.2799C334.81 75.7899 387.28 76.2799 396.21 76.1099C397.25 76.1099 397.81 76.1399 399.26 76.5899C405.71 78.4699 405.25 86.8499 405.14 93.1299C405.35 98.3099 403.24 102.9 397.99 103.94L397.88 103.96Z" fill="#2A9658"/>
<path d="M396.709 32.807C379.536 33.2056 325.494 32.8468 318.344 32.9465C317.895 32.9265 317.287 32.8668 316.479 32.6475C309.488 31.093 309.907 22.3138 310.067 15.7968C309.867 10.8641 311.981 6.23038 317.207 5.22392C333.812 4.73564 386.138 5.22392 395.043 5.05452C396.081 5.05452 396.639 5.08441 398.085 5.53284C404.517 7.40625 404.059 15.7569 403.949 22.0149C404.158 27.1768 402.054 31.7507 396.819 32.787L396.709 32.807Z" fill="#2A9658" stroke="#509D3F" stroke-miterlimit="10"/>
<path d="M397.709 103.807C380.536 104.206 326.494 103.847 319.344 103.946C318.895 103.927 318.287 103.867 317.479 103.648C310.488 102.093 310.907 93.3138 311.067 86.7968C310.867 81.8641 312.981 77.2304 318.207 76.2239C334.812 75.7356 387.138 76.2239 396.043 76.0545C397.081 76.0545 397.639 76.0844 399.085 76.5328C405.517 78.4062 405.059 86.7569 404.949 93.0149C405.158 98.1768 403.054 102.751 397.819 103.787L397.709 103.807Z" fill="#2A9658" stroke="#509D3F" stroke-miterlimit="10"/>
<path d="M459 6.31993C459.66 26.5299 459.01 92.8399 459.23 106.83C459.29 108.83 457.38 111.4 455.33 112.21C452.66 113.23 447.41 112.57 443.88 112.75C433.95 112.42 427.12 115.43 427.62 101.84C427.58 98.4499 428.31 94.5499 426.23 91.8599C424.6 89.7499 421.46 89.6899 418.9 89.4599C411.26 89.1199 410.66 85.7599 410.94 77.7399C410.99 71.9799 409.9 65.6699 416.67 64.9399C419.33 64.4999 422.61 64.7799 424.94 63.4299C428.18 61.6799 427.68 55.8199 423.98 54.7999C421.06 53.7299 417.42 54.3299 414.47 53.1799C410.17 51.4599 411.02 46.5799 410.93 41.6699C411.01 37.3399 410.42 33.3699 412.93 31.3999C415.71 29.0199 419.82 29.9699 423.1 29.1299C427.2 27.9599 427.85 24.6999 427.68 20.5599C427.68 17.5599 427.68 13.2199 427.68 9.98993C427.44 0.469934 434.31 1.83993 441.34 1.79993C443.77 1.79993 446.27 1.79993 448.69 1.79993C453.77 1.60993 457.09 1.78993 458.95 6.22993L458.98 6.32993L459 6.31993ZM395.85 114.86C410.25 114.14 430.16 117.11 440.32 123.05C453.46 130.16 461.33 140.55 459.11 154.21C455.58 174.32 426.9 185.18 400.52 184.59C369.6 186.16 337.93 177.38 332.93 154.7C330.55 142.26 337.01 132.07 348.4 124.83C358.38 117.78 380.03 113.98 395.7 114.86H395.85ZM395.69 138.5C386.04 138.31 371.56 138.65 365 145.91C360.57 151.39 365.87 158.22 381.09 160.2C384.9 160.69 388.58 160.88 392.34 160.79C398.83 160.66 404.87 161.12 411.3 160.12C431.37 157.33 433.8 146.19 419.11 141.09C412.43 138.7 403.13 138.28 395.85 138.51H395.68L395.69 138.5Z" fill="#2A9658" stroke="#509D3F" stroke-miterlimit="10"/>
<path d="M225.445 10C225.445 5.58172 229.027 2 233.445 2H275.445C279.863 2 283.445 5.58172 283.445 10V176C283.445 180.418 279.863 184 275.445 184H233.445C229.027 184 225.445 180.418 225.445 176V10Z" fill="#2A9658"/>
<rect x="597" y="2" width="38" height="134" rx="8" fill="#2A9658"/>
<rect x="561" y="111" width="31" height="21" rx="4" fill="#2A9658"/>
<path d="M720.289 28.9725C720.289 48.6196 727.651 68.2667 750.9 79.1188C755.794 81.4032 757.998 87.5183 754.961 91.9844L747.672 102.703C745.69 105.618 742.014 106.933 738.737 105.632C728.204 101.45 719.865 95.4106 713.421 87.993C709.147 83.073 700.358 83.1007 696.215 88.1318C689.136 96.7298 679.831 103.739 668.045 108.416C664.811 109.7 661.179 108.442 659.171 105.6L651.468 94.6945C648.299 90.2085 650.522 83.9405 655.518 81.6574C680.291 70.3345 688.186 49.0572 688.36 29.1696V19.0372C688.36 14.6189 691.942 11.0371 696.36 11.0371H712.289C716.707 11.0371 720.289 14.6189 720.289 19.0372V28.9725ZM787.184 0C791.602 0 795.184 3.58172 795.184 8V42.6526C795.184 47.0709 798.766 50.6526 803.184 50.6526H809.85C814.268 50.6526 817.85 54.2344 817.85 58.6526V69.063C817.85 73.4812 814.268 77.063 809.85 77.063H803.184C798.766 77.063 795.184 80.6447 795.184 85.063V124.643C795.184 129.061 791.602 132.643 787.184 132.643H771.452C767.034 132.643 763.452 129.061 763.452 124.643V7.99999C763.452 3.58171 767.034 0 771.452 0H787.184ZM792.9 154.126C797.318 154.126 800.9 157.708 800.9 162.126V171.354C800.9 175.772 797.318 179.354 792.9 179.354H682.17C677.751 179.354 674.17 175.772 674.17 171.354V127.438C674.17 123.019 677.751 119.438 682.17 119.438H698.296C702.714 119.438 706.296 123.019 706.296 127.438V146.126C706.296 150.544 709.877 154.126 714.296 154.126H792.9Z" fill="#2A9658"/>
</g>
<defs>
<clipPath id="clip0_26_2">
<rect width="987.24" height="184.76" fill="white"/>
</clipPath>
</defs>
</svg>
