<svg width="623" height="168" viewBox="0 0 623 168" fill="none" xmlns="http://www.w3.org/2000/svg">
<mask id="mask0_31_212" style="mask-type:alpha" maskUnits="userSpaceOnUse" x="0" y="1" width="168" height="165">
<path d="M6.40449 1.16888C25.2687 0.800373 95.8405 1.16888 106.118 1.04359C109.544 0.991996 113.139 3.34306 113.753 6.25425C114.26 11.9219 113.806 18.1791 113.948 23.9646C113.931 27.2075 113.957 29.6027 113.948 32.2191C114.162 35.3146 113.557 38.0268 110.398 39.7366C108.423 40.6726 107.506 40.8127 106.216 40.8421C97.1486 40.3557 13.8701 41.8371 4.70493 40.2231C-0.0111297 38.5206 -0.144603 34.5776 0.0600562 30.9367C0.0600562 25.6671 0.0600562 15.9754 0.0600562 10.7869C-0.242483 6.47535 0.415985 2.45128 6.31551 1.19099L6.40449 1.17625V1.16888Z" fill="url(#paint0_linear_31_212)"/>
<path d="M6.40449 120.194C25.2687 119.77 95.8405 120.194 106.118 120.05C109.544 119.991 113.139 122.695 113.753 126.042C114.26 132.56 113.806 139.756 113.948 146.409C113.931 150.139 113.957 152.893 113.948 155.902C114.162 159.462 113.557 162.581 110.398 164.547C108.423 165.624 107.506 165.785 106.216 165.818C97.1486 165.259 13.8701 166.963 4.70493 165.107C-0.0111297 163.149 -0.144603 158.614 0.0600562 154.427C0.0600562 148.367 0.0600562 137.222 0.0600562 131.255C-0.242483 126.288 0.415985 121.669 6.31551 120.211L6.40449 120.194Z" fill="url(#paint1_linear_31_212)"/>
<path d="M5.41535 52.1995C12.813 51.7649 29.4027 52.1995 34.8811 52.0443C39.0138 51.6303 42.2788 56.536 41.9553 62.1145C41.9479 67.9413 41.9553 87.1915 41.9553 96.2164C42.4259 104.103 39.1535 108.615 33.5428 107.932C26.6304 107.942 11.4011 107.932 7.11402 107.932C5.46683 108.046 3.72402 107.342 2.39303 105.862C0.539936 103.637 -0.0115876 100.822 0.0398873 97.862C0.0398873 94.1361 0.0398873 83.4967 0.0398873 74.5547C0.0398873 70.1147 0.0398873 66.6683 0.0398873 62.9528C-0.30573 58.2023 1.60621 53.131 5.32711 52.2306L5.41535 52.2099V52.1995Z" fill="url(#paint2_linear_31_212)"/>
<path d="M63.4783 52.1995C73.6942 51.7649 96.6037 52.1995 104.169 52.0443C109.876 51.6303 114.385 56.536 113.938 62.1145C113.928 67.9413 113.938 87.1915 113.938 96.2164C114.588 104.103 110.069 108.615 102.321 107.932C92.7753 107.942 71.7445 107.932 65.8241 107.932C63.5494 108.046 61.1427 107.342 59.3047 105.862C56.7456 103.647 55.984 100.822 56.0551 97.862C56.0551 94.1361 56.0551 83.4967 56.0551 74.5547C56.0551 70.1147 56.0551 66.6683 56.0551 62.9528C55.5778 58.2023 58.2181 53.131 63.3565 52.2306L63.4783 52.2099V52.1995Z" fill="url(#paint3_linear_31_212)"/>
<path d="M126 8.41573C126 4.32013 128.594 1 131.793 1H162.207C165.406 1 168 4.32014 168 8.41573V158.584C168 162.68 165.406 166 162.207 166H131.793C128.594 166 126 162.68 126 158.584V8.41573Z" fill="url(#paint4_linear_31_212)"/>
</mask>
<g mask="url(#mask0_31_212)">
<path d="M-86.946 -50.2136L174 -10.7136C174 -10.7136 338.554 226.286 174 201.5C9.44586 176.713 -15.946 201.5 -15.946 201.5L-86.946 -50.2136Z" fill="url(#paint5_linear_31_212)"/>
</g>
<path d="M270.695 8.17188V20.125H261.906V48.6016C265.48 48.3086 268.996 47.957 272.336 47.5469L272.922 58.5625C252.883 61.9609 229.562 62.3125 212.688 62.3125L211.164 50.2422L222.531 50.125V20.125H213.859V8.17188H270.695ZM301.047 1.14062V66.2969H286.164V50.3594H273.039V38.4062H286.164V30.2031H273.039V18.4844H286.164V1.14062H301.047ZM264.602 67.9375C287.57 68.0547 301.281 75.2031 301.398 87.9766C301.281 100.398 287.57 107.781 264.602 107.781C241.75 107.781 227.922 100.398 227.922 87.9766C227.922 75.2031 241.75 68.0547 264.602 67.9375ZM264.602 79.4219C250.305 79.4219 242.805 82.1172 242.805 87.9766C242.805 93.6016 250.305 96.4141 264.602 96.4141C278.898 96.4141 286.516 93.6016 286.516 87.9766C286.516 82.1172 278.898 79.4219 264.602 79.4219ZM236.945 49.7734L247.609 49.4219V20.125H236.945V49.7734ZM405.227 1.25781V81.7656H390.227V73.3281H369.836V63.1328H390.227V1.25781H405.227ZM407.57 93.9531V105.906H328.117V74.0312H343V59.8516C333.449 60.2617 324.367 60.3203 316.281 60.3203L314.523 48.4844C334.094 48.3672 360.461 48.1328 382.961 45.3203L383.781 55.9844C375.344 57.3906 366.613 58.3867 358 59.0312V79.3047H343V93.9531H407.57ZM349.211 4.89062C364.68 4.77344 375.812 12.625 375.812 23.9922C375.812 35.3594 364.68 42.7422 349.211 42.7422C333.391 42.7422 322.375 35.3594 322.375 23.9922C322.375 12.625 333.273 4.77344 349.211 4.89062ZM349.211 15.7891C341.594 15.7891 336.438 18.7188 336.555 23.9922C336.438 29.1484 341.594 31.9609 349.211 31.9609C356.359 31.9609 361.516 29.1484 361.633 23.9922C361.516 18.7188 356.359 15.7891 349.211 15.7891ZM457.961 19.4219C457.844 33.0156 465.578 46.2578 482.922 51.8828L475.07 63.6016C463.41 59.6758 455.383 52 450.812 42.2734C446.008 52.9961 437.512 61.375 425.148 65.5938L416.828 53.7578C434.992 48.1328 442.844 33.8359 442.961 19.3047V7.70312H457.961V19.4219ZM503.195 1.14062V31.9609H517.609V44.6172H503.195V79.3047H488.195V1.14062H503.195ZM507.18 93.9531V105.906H433.938V71.5703H449.172V93.9531H507.18ZM552.062 5.71094C565.715 5.59375 576.555 13.3867 579.484 24.8125H597.297V1.14062H612.18V58.4453H597.297V36.7656H579.602C576.789 48.4844 565.832 56.4531 552.062 56.4531C535.656 56.4531 523.586 45.7891 523.703 30.9062C523.586 16.2578 535.656 5.59375 552.062 5.71094ZM552.062 18.1328C543.742 18.0156 537.766 22.9375 537.883 30.9062C537.766 38.875 543.742 43.9141 552.062 43.9141C560.148 43.9141 566.008 38.875 566.008 30.9062C566.008 22.9375 560.148 18.0156 552.062 18.1328ZM555.812 63.1328V73.4453H597.297V63.1328H612.18V106.609H541.047V63.1328H555.812ZM555.812 94.5391H597.297V84.9297H555.812V94.5391Z" fill="white"/>
<path d="M222.891 158V129.719H232.969C239.531 129.719 242.773 133.664 242.773 138.898C242.773 144.094 239.531 148.078 232.969 148.078H227.188V158H222.891ZM227.188 144.406H232.539C236.719 144.406 238.438 142.062 238.438 138.898C238.438 135.695 236.719 133.391 232.539 133.391H227.188V144.406ZM250.331 165.969C249.472 165.969 248.652 165.93 248.105 165.852V162.375C248.573 162.414 249.394 162.453 249.98 162.453C251.269 162.453 252.362 162.336 253.339 159.68L253.847 158.273L246.073 136.789H250.527L255.878 153.234H256.112L261.464 136.789H265.956L257.206 160.812C255.995 164.172 253.808 165.969 250.331 165.969ZM278.553 158.43C272.303 158.43 268.475 154.133 268.475 147.531C268.475 141.008 272.381 136.516 278.28 136.516C283.123 136.516 287.694 139.523 287.694 147.18V148.664H272.616C272.733 152.688 275.096 154.992 278.592 154.992C280.975 154.992 282.498 153.977 283.202 152.688H287.42C286.483 156.125 283.202 158.43 278.553 158.43ZM272.655 145.539H283.592C283.592 142.297 281.522 139.953 278.319 139.953C274.979 139.953 272.811 142.531 272.655 145.539ZM301.619 158.43C295.603 158.43 291.697 154.055 291.697 147.492C291.697 140.891 295.603 136.516 301.619 136.516C307.595 136.516 311.502 140.891 311.502 147.492C311.502 154.055 307.595 158.43 301.619 158.43ZM301.619 154.953C305.447 154.953 307.283 151.555 307.283 147.492C307.283 143.43 305.447 139.953 301.619 139.953C297.713 139.953 295.877 143.43 295.877 147.492C295.877 151.555 297.713 154.953 301.619 154.953ZM320.583 145.422V158H316.403V136.789H320.427V140.266H320.661C321.677 138 323.747 136.516 326.911 136.516C331.286 136.516 334.137 139.25 334.137 144.523V158H329.997V145.031C329.997 141.945 328.317 140.109 325.505 140.109C322.653 140.109 320.583 142.023 320.583 145.422ZM348.922 166.398C343.57 166.398 340.055 164.016 339.664 160.07H343.922C344.312 162.062 346.188 163.039 348.961 163.039C352.281 163.039 354.391 161.633 354.391 158.312V154.133H354.117C353.375 155.5 351.852 157.688 347.945 157.688C342.945 157.688 339.078 153.938 339.078 147.18C339.078 140.422 342.867 136.516 347.984 136.516C351.93 136.516 353.375 138.898 354.156 140.227H354.43V136.789H358.492V158.469C358.492 163.898 354.391 166.398 348.922 166.398ZM348.883 154.25C352.438 154.25 354.43 151.633 354.43 147.258C354.43 142.961 352.477 140.07 348.883 140.07C345.172 140.07 343.336 143.195 343.336 147.258C343.336 151.398 345.25 154.25 348.883 154.25ZM370.308 158L362.456 129.719H366.988L372.495 151.594H372.73L378.472 129.719H382.925L388.667 151.594H388.902L394.409 129.719H398.941L391.089 158H386.753L380.816 136.867H380.581L374.644 158H370.308ZM409.78 158.43C403.764 158.43 399.858 154.055 399.858 147.492C399.858 140.891 403.764 136.516 409.78 136.516C415.756 136.516 419.663 140.891 419.663 147.492C419.663 154.055 415.756 158.43 409.78 158.43ZM409.78 154.953C413.608 154.953 415.444 151.555 415.444 147.492C415.444 143.43 413.608 139.953 409.78 139.953C405.873 139.953 404.038 143.43 404.038 147.492C404.038 151.555 405.873 154.953 409.78 154.953ZM428.744 145.422V158H424.564V136.789H428.587V140.266H428.822C429.837 138 431.908 136.516 435.072 136.516C439.447 136.516 442.298 139.25 442.298 144.523V158H438.158V145.031C438.158 141.945 436.478 140.109 433.666 140.109C430.814 140.109 428.744 142.023 428.744 145.422ZM463.391 129.719V158H459.094V129.719H463.391ZM473.761 145.422V158H469.581V136.789H473.605V140.266H473.839C474.855 138 476.925 136.516 480.089 136.516C484.464 136.516 487.316 139.25 487.316 144.523V158H483.175V145.031C483.175 141.945 481.495 140.109 478.683 140.109C475.831 140.109 473.761 142.023 473.761 145.422ZM501.123 158.43C496.006 158.43 492.256 154.289 492.256 147.453C492.256 140.539 496.045 136.516 501.163 136.516C505.108 136.516 506.553 138.898 507.295 140.227H507.491V129.719H511.67V158H507.608V154.68H507.295C506.514 156.086 504.991 158.43 501.123 158.43ZM502.061 154.875C505.616 154.875 507.608 151.828 507.608 147.375C507.608 142.961 505.655 140.07 502.061 140.07C498.35 140.07 496.514 143.195 496.514 147.375C496.514 151.633 498.428 154.875 502.061 154.875ZM531.377 149.172V136.789H535.517V158H531.455V154.328H531.22C530.244 156.594 528.056 158.273 524.892 158.273C520.791 158.273 517.9 155.539 517.9 150.266V136.789H522.08V149.758C522.08 152.648 523.837 154.484 526.377 154.484C528.681 154.484 531.377 152.805 531.377 149.172ZM553.309 142.57C552.919 140.891 551.591 139.797 549.286 139.797C546.903 139.797 545.184 141.047 545.223 142.648C545.184 143.898 546.2 144.797 548.544 145.344L551.903 146.125C555.809 146.984 557.684 148.859 557.723 151.867C557.684 155.695 554.481 158.43 549.052 158.43C543.973 158.43 540.927 156.164 540.419 152.219H544.677C545.028 154.133 546.513 155.07 549.013 155.07C551.708 155.07 553.427 153.977 553.466 152.18C553.427 150.812 552.411 149.914 550.184 149.406L546.864 148.703C543.036 147.844 541.044 145.812 541.044 142.883C541.044 139.094 544.325 136.516 549.247 136.516C553.973 136.516 556.903 138.938 557.333 142.57H553.309ZM572.508 136.789V140.109H568.172V151.75C568.172 154.133 569.383 154.562 570.711 154.602C571.297 154.602 572.234 154.523 572.82 154.484V158.117C572.234 158.195 571.336 158.273 570.203 158.273C566.922 158.273 563.992 156.477 564.031 152.609V140.109H560.906V136.789H564.031V131.711H568.172V136.789H572.508ZM577.37 158V136.789H581.394V140.148H581.628C582.409 137.883 584.519 136.477 587.019 136.477C587.527 136.477 588.347 136.516 588.777 136.555V140.539C588.425 140.461 587.448 140.305 586.589 140.305C583.698 140.305 581.55 142.297 581.55 145.07V158H577.37ZM595.944 165.969C595.084 165.969 594.264 165.93 593.717 165.852V162.375C594.186 162.414 595.006 162.453 595.592 162.453C596.881 162.453 597.975 162.336 598.952 159.68L599.459 158.273L591.686 136.789H596.139L601.491 153.234H601.725L607.077 136.789H611.569L602.819 160.812C601.608 164.172 599.42 165.969 595.944 165.969Z" fill="white"/>
<defs>
<linearGradient id="paint0_linear_31_212" x1="57" y1="1" x2="57" y2="41" gradientUnits="userSpaceOnUse">
<stop stop-color="#2A9658"/>
<stop offset="0.0769231" stop-color="#288E53"/>
<stop offset="1" stop-color="#0D301C"/>
</linearGradient>
<linearGradient id="paint1_linear_31_212" x1="57" y1="120" x2="57" y2="166" gradientUnits="userSpaceOnUse">
<stop stop-color="#2A9658"/>
<stop offset="0.0769231" stop-color="#288E53"/>
<stop offset="1" stop-color="#0D301C"/>
</linearGradient>
<linearGradient id="paint2_linear_31_212" x1="21" y1="52" x2="21" y2="108" gradientUnits="userSpaceOnUse">
<stop stop-color="#2A9658"/>
<stop offset="0.0769231" stop-color="#288E53"/>
<stop offset="1" stop-color="#0D301C"/>
</linearGradient>
<linearGradient id="paint3_linear_31_212" x1="85" y1="52" x2="85" y2="108" gradientUnits="userSpaceOnUse">
<stop stop-color="#2A9658"/>
<stop offset="0.0769231" stop-color="#288E53"/>
<stop offset="1" stop-color="#0D301C"/>
</linearGradient>
<linearGradient id="paint4_linear_31_212" x1="147" y1="1" x2="147" y2="166" gradientUnits="userSpaceOnUse">
<stop stop-color="#2A9658"/>
<stop offset="0.0769231" stop-color="#288E53"/>
<stop offset="1" stop-color="#0D301C"/>
</linearGradient>
<linearGradient id="paint5_linear_31_212" x1="187.353" y1="69.8511" x2="80.6618" y2="227.743" gradientUnits="userSpaceOnUse">
<stop stop-color="#3DBF55"/>
<stop offset="1" stop-color="#1EB68F"/>
</linearGradient>
</defs>
</svg>
