<svg width="613" height="169" viewBox="0 0 613 169" fill="none" xmlns="http://www.w3.org/2000/svg">
<path d="M260.695 19.1719V31.125H251.906V59.6016C255.48 59.3086 258.996 58.957 262.336 58.5469L262.922 69.5625C242.883 72.9609 219.562 73.3125 202.688 73.3125L201.164 61.2422L212.531 61.125V31.125H203.859V19.1719H260.695ZM291.047 12.1406V77.2969H276.164V61.3594H263.039V49.4062H276.164V41.2031H263.039V29.4844H276.164V12.1406H291.047ZM254.602 78.9375C277.57 79.0547 291.281 86.2031 291.398 98.9766C291.281 111.398 277.57 118.781 254.602 118.781C231.75 118.781 217.922 111.398 217.922 98.9766C217.922 86.2031 231.75 79.0547 254.602 78.9375ZM254.602 90.4219C240.305 90.4219 232.805 93.1172 232.805 98.9766C232.805 104.602 240.305 107.414 254.602 107.414C268.898 107.414 276.516 104.602 276.516 98.9766C276.516 93.1172 268.898 90.4219 254.602 90.4219ZM226.945 60.7734L237.609 60.4219V31.125H226.945V60.7734ZM395.227 12.2578V92.7656H380.227V84.3281H359.836V74.1328H380.227V12.2578H395.227ZM397.57 104.953V116.906H318.117V85.0312H333V70.8516C323.449 71.2617 314.367 71.3203 306.281 71.3203L304.523 59.4844C324.094 59.3672 350.461 59.1328 372.961 56.3203L373.781 66.9844C365.344 68.3906 356.613 69.3867 348 70.0312V90.3047H333V104.953H397.57ZM339.211 15.8906C354.68 15.7734 365.812 23.625 365.812 34.9922C365.812 46.3594 354.68 53.7422 339.211 53.7422C323.391 53.7422 312.375 46.3594 312.375 34.9922C312.375 23.625 323.273 15.7734 339.211 15.8906ZM339.211 26.7891C331.594 26.7891 326.438 29.7188 326.555 34.9922C326.438 40.1484 331.594 42.9609 339.211 42.9609C346.359 42.9609 351.516 40.1484 351.633 34.9922C351.516 29.7188 346.359 26.7891 339.211 26.7891ZM447.961 30.4219C447.844 44.0156 455.578 57.2578 472.922 62.8828L465.07 74.6016C453.41 70.6758 445.383 63 440.812 53.2734C436.008 63.9961 427.512 72.375 415.148 76.5938L406.828 64.7578C424.992 59.1328 432.844 44.8359 432.961 30.3047V18.7031H447.961V30.4219ZM493.195 12.1406V42.9609H507.609V55.6172H493.195V90.3047H478.195V12.1406H493.195ZM497.18 104.953V116.906H423.938V82.5703H439.172V104.953H497.18ZM542.062 16.7109C555.715 16.5938 566.555 24.3867 569.484 35.8125H587.297V12.1406H602.18V69.4453H587.297V47.7656H569.602C566.789 59.4844 555.832 67.4531 542.062 67.4531C525.656 67.4531 513.586 56.7891 513.703 41.9062C513.586 27.2578 525.656 16.5938 542.062 16.7109ZM542.062 29.1328C533.742 29.0156 527.766 33.9375 527.883 41.9062C527.766 49.875 533.742 54.9141 542.062 54.9141C550.148 54.9141 556.008 49.875 556.008 41.9062C556.008 33.9375 550.148 29.0156 542.062 29.1328ZM545.812 74.1328V84.4453H587.297V74.1328H602.18V117.609H531.047V74.1328H545.812ZM545.812 105.539H587.297V95.9297H545.812V105.539Z" fill="url(#paint0_linear_31_341)"/>
<path d="M212.168 162V140.789H219.727C224.648 140.789 227.08 143.748 227.08 147.674C227.08 151.57 224.648 154.559 219.727 154.559H215.391V162H212.168ZM215.391 151.805H219.404C222.539 151.805 223.828 150.047 223.828 147.674C223.828 145.271 222.539 143.543 219.404 143.543H215.391V151.805ZM238.448 167.977C237.804 167.977 237.189 167.947 236.779 167.889V165.281C237.13 165.311 237.745 165.34 238.185 165.34C239.152 165.34 239.972 165.252 240.704 163.26L241.085 162.205L235.255 146.092H238.595L242.609 158.426H242.784L246.798 146.092H250.167L243.605 164.109C242.696 166.629 241.056 167.977 238.448 167.977ZM265.315 162.322C260.627 162.322 257.756 159.1 257.756 154.148C257.756 149.256 260.686 145.887 265.11 145.887C268.743 145.887 272.17 148.143 272.17 153.885V154.998H260.862C260.95 158.016 262.722 159.744 265.344 159.744C267.131 159.744 268.274 158.982 268.801 158.016H271.965C271.262 160.594 268.801 162.322 265.315 162.322ZM260.891 152.654H269.094C269.094 150.223 267.541 148.465 265.139 148.465C262.634 148.465 261.008 150.398 260.891 152.654ZM288.314 162.322C283.802 162.322 280.873 159.041 280.873 154.119C280.873 149.168 283.802 145.887 288.314 145.887C292.796 145.887 295.726 149.168 295.726 154.119C295.726 159.041 292.796 162.322 288.314 162.322ZM288.314 159.715C291.185 159.715 292.562 157.166 292.562 154.119C292.562 151.072 291.185 148.465 288.314 148.465C285.384 148.465 284.007 151.072 284.007 154.119C284.007 157.166 285.384 159.715 288.314 159.715ZM308.237 152.566V162H305.102V146.092H308.12V148.699H308.296C309.057 147 310.61 145.887 312.983 145.887C316.264 145.887 318.403 147.938 318.403 151.893V162H315.298V152.273C315.298 149.959 314.038 148.582 311.929 148.582C309.79 148.582 308.237 150.018 308.237 152.566ZM335.191 168.299C331.178 168.299 328.541 166.512 328.248 163.553H331.441C331.734 165.047 333.141 165.779 335.221 165.779C337.711 165.779 339.293 164.725 339.293 162.234V159.1H339.088C338.531 160.125 337.389 161.766 334.459 161.766C330.709 161.766 327.809 158.953 327.809 153.885C327.809 148.816 330.65 145.887 334.488 145.887C337.447 145.887 338.531 147.674 339.117 148.67H339.322V146.092H342.369V162.352C342.369 166.424 339.293 168.299 335.191 168.299ZM335.162 159.188C337.828 159.188 339.322 157.225 339.322 153.943C339.322 150.721 337.857 148.553 335.162 148.553C332.379 148.553 331.002 150.896 331.002 153.943C331.002 157.049 332.438 159.188 335.162 159.188ZM356.931 162L351.042 140.789H354.441L358.571 157.195H358.747L363.054 140.789H366.394L370.7 157.195H370.876L375.007 140.789H378.405L372.517 162H369.265L364.812 146.15H364.636L360.183 162H356.931ZM392.235 162.322C387.723 162.322 384.793 159.041 384.793 154.119C384.793 149.168 387.723 145.887 392.235 145.887C396.717 145.887 399.647 149.168 399.647 154.119C399.647 159.041 396.717 162.322 392.235 162.322ZM392.235 159.715C395.106 159.715 396.483 157.166 396.483 154.119C396.483 151.072 395.106 148.465 392.235 148.465C389.305 148.465 387.928 151.072 387.928 154.119C387.928 157.166 389.305 159.715 392.235 159.715ZM412.158 152.566V162H409.023V146.092H412.041V148.699H412.216C412.978 147 414.531 145.887 416.904 145.887C420.185 145.887 422.324 147.938 422.324 151.893V162H419.218V152.273C419.218 149.959 417.959 148.582 415.849 148.582C413.711 148.582 412.158 150.018 412.158 152.566ZM449.543 140.789V162H446.32V140.789H449.543ZM463.021 152.566V162H459.886V146.092H462.904V148.699H463.079C463.841 147 465.394 145.887 467.767 145.887C471.048 145.887 473.187 147.938 473.187 151.893V162H470.081V152.273C470.081 149.959 468.821 148.582 466.712 148.582C464.573 148.582 463.021 150.018 463.021 152.566ZM489.243 162.322C485.405 162.322 482.592 159.217 482.592 154.09C482.592 148.904 485.434 145.887 489.272 145.887C492.231 145.887 493.315 147.674 493.871 148.67H494.018V140.789H497.153V162H494.106V159.51H493.871C493.286 160.564 492.143 162.322 489.243 162.322ZM489.946 159.656C492.612 159.656 494.106 157.371 494.106 154.031C494.106 150.721 492.641 148.553 489.946 148.553C487.163 148.553 485.786 150.896 485.786 154.031C485.786 157.225 487.221 159.656 489.946 159.656ZM517.632 155.379V146.092H520.738V162H517.691V159.246H517.515C516.783 160.945 515.142 162.205 512.769 162.205C509.693 162.205 507.525 160.154 507.525 156.199V146.092H510.66V155.818C510.66 157.986 511.978 159.363 513.882 159.363C515.611 159.363 517.632 158.104 517.632 155.379ZM539.782 150.428C539.489 149.168 538.493 148.348 536.764 148.348C534.977 148.348 533.688 149.285 533.718 150.486C533.688 151.424 534.45 152.098 536.208 152.508L538.727 153.094C541.657 153.738 543.063 155.145 543.093 157.4C543.063 160.271 540.661 162.322 536.589 162.322C532.78 162.322 530.495 160.623 530.114 157.664H533.307C533.571 159.1 534.684 159.803 536.559 159.803C538.581 159.803 539.87 158.982 539.899 157.635C539.87 156.609 539.108 155.936 537.438 155.555L534.948 155.027C532.077 154.383 530.583 152.859 530.583 150.662C530.583 147.82 533.044 145.887 536.735 145.887C540.28 145.887 542.477 147.703 542.8 150.428H539.782ZM559.881 146.092V148.582H556.629V157.312C556.629 159.1 557.537 159.422 558.533 159.451C558.973 159.451 559.676 159.393 560.115 159.363V162.088C559.676 162.146 559.002 162.205 558.152 162.205C555.691 162.205 553.494 160.857 553.523 157.957V148.582H551.18V146.092H553.523V142.283H556.629V146.092H559.881ZM569.228 162V146.092H572.245V148.611H572.421C573.007 146.912 574.589 145.857 576.464 145.857C576.845 145.857 577.46 145.887 577.782 145.916V148.904C577.519 148.846 576.786 148.729 576.142 148.729C573.974 148.729 572.362 150.223 572.362 152.303V162H569.228ZM588.858 167.977C588.213 167.977 587.598 167.947 587.188 167.889V165.281C587.539 165.311 588.155 165.34 588.594 165.34C589.561 165.34 590.381 165.252 591.114 163.26L591.495 162.205L585.664 146.092H589.004L593.018 158.426H593.194L597.207 146.092H600.577L594.014 164.109C593.106 166.629 591.465 167.977 588.858 167.977Z" fill="#7FA78C"/>
<rect x="57" y="60" width="41" height="48" fill="url(#paint1_linear_31_341)"/>
<rect x="73" y="60" width="41" height="48" rx="5" fill="url(#paint2_linear_31_341)"/>
<path d="M45 0L109.717 9.37947C112.176 9.73581 114 11.8434 114 14.3278V45.0002C114 47.7616 111.761 50.0002 109 50.0002H45V0Z" fill="url(#paint3_linear_31_341)"/>
<path d="M45 0L3.91533 9.13006C1.62765 9.63844 -1.60933e-06 11.6675 -1.60933e-06 14.011V45C-1.60933e-06 47.7614 2.23857 50 5 50H45V0Z" fill="url(#paint4_linear_31_341)"/>
<path d="M45 0L3.91533 9.13006C1.62765 9.63844 -1.60933e-06 11.6675 -1.60933e-06 14.011V45C-1.60933e-06 47.7614 2.23857 50 5 50H45V0Z" fill="url(#paint5_linear_31_341)"/>
<path d="M122 16.7255C122 13.6965 124.672 11.3631 127.673 11.7711L155.673 15.5766C158.152 15.9134 160 18.0298 160 20.531V160C160 162.761 157.761 165 155 165H127C124.239 165 122 162.761 122 160V16.7255Z" fill="#D9D9D9"/>
<path d="M122 16.7255C122 13.6965 124.672 11.3631 127.673 11.7711L155.673 15.5766C158.152 15.9134 160 18.0298 160 20.531V160C160 162.761 157.761 165 155 165H127C124.239 165 122 162.761 122 160V16.7255Z" fill="url(#paint6_linear_31_341)"/>
<path d="M45 118H109C111.761 118 114 120.239 114 123V160C114 162.761 111.761 165 109 165H45V118Z" fill="url(#paint7_linear_31_341)"/>
<path d="M0 123C0 120.239 2.23858 118 5 118H45V165H5C2.23858 165 0 162.761 0 160V123Z" fill="#D9D9D9"/>
<path d="M0 123C0 120.239 2.23858 118 5 118H45V165H5C2.23858 165 0 162.761 0 160V123Z" fill="url(#paint8_linear_31_341)"/>
<path d="M0 65C0 62.2386 2.23858 60 5 60H45V108H5C2.23858 108 0 105.761 0 103V65Z" fill="#D9D9D9"/>
<path d="M0 65C0 62.2386 2.23858 60 5 60H45V108H5C2.23858 108 0 105.761 0 103V65Z" fill="url(#paint9_linear_31_341)"/>
<defs>
<linearGradient id="paint0_linear_31_341" x1="405.5" y1="11" x2="405.5" y2="119" gradientUnits="userSpaceOnUse">
<stop stop-color="#0A3F0D"/>
<stop offset="1" stop-color="#0D4A37"/>
</linearGradient>
<linearGradient id="paint1_linear_31_341" x1="57" y1="82.2857" x2="104.616" y2="65.847" gradientUnits="userSpaceOnUse">
<stop stop-color="#32BC6A"/>
<stop offset="1" stop-color="#36BD65"/>
</linearGradient>
<linearGradient id="paint2_linear_31_341" x1="73" y1="82.2857" x2="120.616" y2="65.847" gradientUnits="userSpaceOnUse">
<stop stop-color="#32BC6A"/>
<stop offset="1" stop-color="#36BD65"/>
</linearGradient>
<linearGradient id="paint3_linear_31_341" x1="38.5" y1="28" x2="122.5" y2="31.5" gradientUnits="userSpaceOnUse">
<stop stop-color="#37BD61"/>
<stop offset="1" stop-color="#3EC056"/>
</linearGradient>
<linearGradient id="paint4_linear_31_341" x1="49.2391" y1="27.9999" x2="-5.59809" y2="29.49" gradientUnits="userSpaceOnUse">
<stop stop-color="#37BD61"/>
<stop offset="1" stop-color="#3EC056"/>
</linearGradient>
<linearGradient id="paint5_linear_31_341" x1="-51.5" y1="30" x2="45" y2="21" gradientUnits="userSpaceOnUse">
<stop stop-color="#22CA8F"/>
<stop offset="1" stop-color="#288E42"/>
</linearGradient>
<linearGradient id="paint6_linear_31_341" x1="141" y1="11" x2="141" y2="165" gradientUnits="userSpaceOnUse">
<stop stop-color="#3EBF56"/>
<stop offset="1" stop-color="#2EBB73"/>
</linearGradient>
<linearGradient id="paint7_linear_31_341" x1="98" y1="118" x2="79.5" y2="165" gradientUnits="userSpaceOnUse">
<stop stop-color="#31BB70"/>
<stop offset="1" stop-color="#29B97C"/>
</linearGradient>
<linearGradient id="paint8_linear_31_341" x1="-32.5" y1="158.538" x2="51.1833" y2="146.095" gradientUnits="userSpaceOnUse">
<stop stop-color="#22CA8F"/>
<stop offset="1" stop-color="#288E42"/>
</linearGradient>
<linearGradient id="paint9_linear_31_341" x1="-54.5" y1="102.5" x2="51.2414" y2="90.5728" gradientUnits="userSpaceOnUse">
<stop stop-color="#22CA8F"/>
<stop offset="1" stop-color="#288E42"/>
</linearGradient>
</defs>
</svg>
