<svg width="914" height="185" viewBox="0 0 914 185" fill="none" xmlns="http://www.w3.org/2000/svg">
<mask id="mask0_29_161" style="mask-type:luminance" maskUnits="userSpaceOnUse" x="0" y="0" width="914" height="185">
<path d="M913.24 0H0V184.76H913.24V0Z" fill="white"/>
</mask>
<g mask="url(#mask0_29_161)">
<path d="M322.88 32.9599C305.66 33.3599 251.47 32.9999 244.3 33.0999C243.85 33.0799 243.24 33.0199 242.43 32.7999C235.42 31.2399 235.84 22.4299 236 15.8899C235.8 10.9399 237.92 6.28989 243.16 5.27989C259.81 4.78989 312.28 5.27989 321.21 5.10989C322.25 5.10989 322.81 5.13989 324.26 5.58989C330.71 7.46989 330.25 15.8499 330.14 22.1299C330.35 27.3099 328.24 31.8999 322.99 32.9399L322.88 32.9599Z" fill="#2A9658"/>
<path d="M323.88 103.96C306.66 104.36 252.47 104 245.3 104.1C244.85 104.08 244.24 104.02 243.43 103.8C236.42 102.24 236.84 93.4299 237 86.8899C236.8 81.9399 238.92 77.2899 244.16 76.2799C260.81 75.7899 313.28 76.2799 322.21 76.1099C323.25 76.1099 323.81 76.1399 325.26 76.5899C331.71 78.4699 331.25 86.8499 331.14 93.1299C331.35 98.3099 329.24 102.9 323.99 103.94L323.88 103.96Z" fill="#2A9658"/>
<path d="M269.026 69.7394C261.529 69.7196 246.931 72.3922 247.218 61.0483C247.228 56.8711 246.744 52.1197 247.188 47.3486C247.781 40.3403 251.267 37.7468 258.082 38.1131C263.366 38.0438 270.774 37.3311 274.409 40.5878C276.592 42.4784 276.809 45.6757 276.789 48.3978C276.661 55.0893 279.258 69.0267 269.204 69.7196L269.026 69.7394Z" fill="#063026"/>
<path d="M312.19 70.0301C304.6 70.0101 289.82 72.7101 290.11 61.2501C290.12 57.0301 289.63 52.2301 290.08 47.4101C290.68 40.3301 294.21 37.7101 301.11 38.0801C306.46 38.0101 313.96 37.2901 317.64 40.5801C319.85 42.4901 320.07 45.7201 320.05 48.4701C319.92 55.2301 322.55 69.3101 312.37 70.0101L312.19 70.0301Z" fill="#063026"/>
<path d="M385 6.31993C385.66 26.5299 385.01 92.8399 385.23 106.83C385.29 108.83 383.38 111.4 381.33 112.21C378.66 113.23 373.41 112.57 369.88 112.75C359.95 112.42 353.12 115.43 353.62 101.84C353.58 98.4499 354.31 94.5499 352.23 91.8599C350.6 89.7499 347.46 89.6899 344.9 89.4599C337.26 89.1199 336.66 85.7599 336.94 77.7399C336.99 71.9799 335.9 65.6699 342.67 64.9399C345.33 64.4999 348.61 64.7799 350.94 63.4299C354.18 61.6799 353.68 55.8199 349.98 54.7999C347.06 53.7299 343.42 54.3299 340.47 53.1799C336.17 51.4599 337.02 46.5799 336.93 41.6699C337.01 37.3399 336.42 33.3699 338.93 31.3999C341.71 29.0199 345.82 29.9699 349.1 29.1299C353.2 27.9599 353.85 24.6999 353.68 20.5599C353.68 17.5599 353.68 13.2199 353.68 9.98993C353.44 0.469938 360.31 1.83993 367.34 1.79993C369.77 1.79993 372.27 1.79993 374.69 1.79993C379.77 1.60993 383.09 1.78993 384.95 6.22993L384.98 6.32993L385 6.31993ZM321.85 114.86C336.25 114.14 356.16 117.11 366.32 123.05C379.46 130.16 387.33 140.55 385.11 154.21C381.58 174.32 352.9 185.18 326.52 184.59C295.6 186.16 263.93 177.38 258.93 154.7C256.55 142.26 263.01 132.07 274.4 124.83C284.38 117.78 306.03 113.98 321.7 114.86H321.85ZM321.69 138.5C312.04 138.31 297.56 138.65 291 145.91C286.57 151.39 291.87 158.22 307.09 160.2C310.9 160.69 314.58 160.88 318.34 160.79C324.83 160.66 330.87 161.12 337.3 160.12C357.37 157.33 359.8 146.19 345.11 141.09C338.43 138.7 329.13 138.28 321.85 138.51H321.68L321.69 138.5ZM561.28 161.6C561.45 162.58 561.48 163.6 561.5 164.61C561.42 169.84 562.97 178 558.37 180.85C548.48 183.02 435.83 180.98 426.87 181.66C424.67 181.59 422.14 179.52 421.41 177.34C420.72 175.13 421.2 172.12 421.07 169.54C421.37 157.27 420.52 140.4 421.38 130.59C423.92 124.02 434.02 127.03 440.1 126.24C446.34 125.69 445.92 118.44 445.77 113.03C445.95 107.55 443.46 104.47 437.76 104.71C428.42 104.93 419.34 105.14 410.77 105.16C408.73 105.14 406.49 105.05 404.91 103.67C402.06 101.26 401.71 94.8399 401.24 90.7999C400.96 88.1899 400.49 85.8699 401.46 83.7799C402.64 81.0799 405.96 80.3799 408.68 80.3899C439.59 80.5499 477.85 78.2299 511.9 75.8899C515.69 76.6299 516.56 80.5099 516.71 83.7899C517.08 88.0899 518.09 94.0499 515.27 96.5499C514.09 97.6599 512.39 98.1699 510.82 98.5099C506.77 99.3499 502.02 100.02 497.55 100.44C480.36 102.09 477.59 99.0299 477.42 115.25C477.36 119.77 477.52 124.38 477.53 128.64C477.51 130.41 477.29 132.47 476.15 133.83C473.56 137.05 466.32 136.24 461.56 136.17C454.64 135.69 452.73 139.44 452.87 145.78C452.62 150.81 453.49 156.04 459.02 156.36C466.95 156.36 548.66 156.36 555.62 156.36C558.08 156.36 560.82 158.61 561.26 161.42L561.29 161.59L561.28 161.6ZM458.98 7.49993C483.51 6.68993 507.64 21.1099 503.68 45.9399C499.74 64.1999 482.36 73.4799 459.12 73.3699C438.64 74.2299 417.2 64.9899 413.68 46.0099C409.52 20.8299 434.48 6.62993 458.71 7.50993H458.98V7.49993ZM458.7 30.3499C451.06 30.0999 441.81 33.5599 442.73 41.9499C443.65 48.1299 451.27 50.8099 457.93 50.7099C463.48 51.0499 470.92 49.3799 473.29 45.1899C475.93 41.2199 474.56 36.1899 470.64 33.4099C468.04 31.3099 462.94 30.2699 458.98 30.3499H458.71H458.7ZM806.21 9.12993C826.72 8.97993 844.45 20.1099 851.92 36.7899C854.78 42.0599 861.36 40.4699 866.46 40.7799C880.29 40.6999 879.16 38.1199 878.62 23.5299C878.45 19.2699 878.38 14.6899 878.51 10.7599C878.35 5.25993 880.69 1.30993 886.59 1.79993C890.45 1.79993 899.01 1.79993 902.59 1.79993C906.08 1.40993 909.7 3.76993 910.14 7.15993C910.28 14.6999 910.13 85.5199 910.18 93.7699C910.37 95.7699 908.5 98.5499 906.41 99.3799C904.52 100.17 902.97 99.8999 899.67 99.9599C897.07 99.9599 894.35 99.9599 891.74 99.9599C888.58 99.8199 884.8 100.38 882.4 99.3799C880.17 98.3999 878.65 96.0499 878.66 93.6499C878.6 89.2299 878.66 79.2799 878.64 73.8199C879.01 70.0099 877.56 66.0799 873.36 65.4199C869.67 65.0699 865.72 65.3499 861.95 65.2599C858.67 65.2999 856.89 65.0699 854.98 66.1799C853.21 67.2099 852.13 69.0599 851.25 70.8799C847.93 78.0099 842.78 84.0599 836.25 88.5699C826.44 95.4899 813.36 98.3699 800.98 97.3799C740.02 92.9799 745.39 7.38993 805.99 9.13993H806.22L806.21 9.12993ZM806.16 35.2399C778.8 34.4799 781.92 74.8899 808.67 71.1099C823.8 70.6599 829.83 51.7499 820.8 40.9699C817.8 37.0899 811.82 35.0399 806.4 35.2399H806.16ZM816.68 112.7C817.35 118.52 819.02 121.76 825.55 121.23C838.18 121.23 856.41 121.23 867.23 121.23C871.52 121.14 876.17 122.19 878 117.08C879.77 105.9 882.22 107.32 892.57 107.24C894.9 107.24 897.29 107.24 899.61 107.24C904.69 107.07 908.03 107.24 909.87 111.71C910.67 129.09 909.89 154.73 910.15 173.32C910.04 175 910.37 176.42 909.9 177.96C909.47 180.04 906.34 182.5 904.69 182.51C896.01 182.61 801.54 182.49 792.15 182.54C789.76 182.66 787.04 180.41 786.27 178.07C785.62 174.99 786.15 171.36 785.99 168.06C785.95 155.66 786.02 127.17 785.99 115.13C785.44 110.53 788.7 106.94 793.51 107.25C797.61 107.24 802.11 107.25 806.29 107.25C811.54 107.03 815.53 107.35 816.64 112.53L816.68 112.71V112.7ZM821.33 156.92C829.61 157.41 843.12 156.95 853.14 157.1C861.86 157.1 869.7 157.1 872.35 157.1C873.96 157.19 875.61 156.63 876.85 155.47C880.51 152.11 878.2 145.51 873.23 145.29C866.9 145.23 829.78 145.29 823.12 145.27C816.11 145.04 814.45 154.89 821.23 156.89L821.34 156.92H821.33Z" fill="#063026"/>
<path d="M322.88 32.9599C305.66 33.3599 251.47 32.9999 244.3 33.0999C243.85 33.0799 243.24 33.0199 242.43 32.7999C235.42 31.2399 235.84 22.4299 236 15.8899C235.8 10.9399 237.92 6.28989 243.16 5.27989C259.81 4.78989 312.28 5.27989 321.21 5.10989C322.25 5.10989 322.81 5.13989 324.26 5.58989C330.71 7.46989 330.25 15.8499 330.14 22.1299C330.35 27.3099 328.24 31.8999 322.99 32.9399L322.88 32.9599Z" fill="#2A9658"/>
<path d="M323.88 103.96C306.66 104.36 252.47 104 245.3 104.1C244.85 104.08 244.24 104.02 243.43 103.8C236.42 102.24 236.84 93.4299 237 86.8899C236.8 81.9399 238.92 77.2899 244.16 76.2799C260.81 75.7899 313.28 76.2799 322.21 76.1099C323.25 76.1099 323.81 76.1399 325.26 76.5899C331.71 78.4699 331.25 86.8499 331.14 93.1299C331.35 98.3099 329.24 102.9 323.99 103.94L323.88 103.96Z" fill="#2A9658"/>
<path d="M322.709 32.807C305.536 33.2056 251.494 32.8468 244.344 32.9465C243.895 32.9265 243.287 32.8668 242.479 32.6475C235.488 31.093 235.907 22.3138 236.067 15.7968C235.867 10.8641 237.981 6.23038 243.207 5.22392C259.812 4.73564 312.138 5.22392 321.043 5.05452C322.081 5.05452 322.639 5.08441 324.085 5.53284C330.517 7.40625 330.059 15.7569 329.949 22.0149C330.158 27.1768 328.054 31.7507 322.819 32.787L322.709 32.807Z" fill="#063026"/>
<path d="M323.709 103.807C306.536 104.206 252.494 103.847 245.344 103.946C244.895 103.927 244.287 103.867 243.479 103.648C236.488 102.093 236.907 93.3138 237.067 86.7968C236.867 81.8641 238.981 77.2304 244.207 76.2239C260.812 75.7356 313.138 76.2239 322.043 76.0545C323.081 76.0545 323.639 76.0844 325.085 76.5328C331.517 78.4062 331.059 86.7569 330.949 93.0149C331.158 98.1768 329.054 102.751 323.819 103.787L323.709 103.807Z" fill="#063026"/>
<path d="M385 6.31993C385.66 26.5299 385.01 92.8399 385.23 106.83C385.29 108.83 383.38 111.4 381.33 112.21C378.66 113.23 373.41 112.57 369.88 112.75C359.95 112.42 353.12 115.43 353.62 101.84C353.58 98.4499 354.31 94.5499 352.23 91.8599C350.6 89.7499 347.46 89.6899 344.9 89.4599C337.26 89.1199 336.66 85.7599 336.94 77.7399C336.99 71.9799 335.9 65.6699 342.67 64.9399C345.33 64.4999 348.61 64.7799 350.94 63.4299C354.18 61.6799 353.68 55.8199 349.98 54.7999C347.06 53.7299 343.42 54.3299 340.47 53.1799C336.17 51.4599 337.02 46.5799 336.93 41.6699C337.01 37.3399 336.42 33.3699 338.93 31.3999C341.71 29.0199 345.82 29.9699 349.1 29.1299C353.2 27.9599 353.85 24.6999 353.68 20.5599C353.68 17.5599 353.68 13.2199 353.68 9.98993C353.44 0.469938 360.31 1.83993 367.34 1.79993C369.77 1.79993 372.27 1.79993 374.69 1.79993C379.77 1.60993 383.09 1.78993 384.95 6.22993L384.98 6.32993L385 6.31993ZM321.85 114.86C336.25 114.14 356.16 117.11 366.32 123.05C379.46 130.16 387.33 140.55 385.11 154.21C381.58 174.32 352.9 185.18 326.52 184.59C295.6 186.16 263.93 177.38 258.93 154.7C256.55 142.26 263.01 132.07 274.4 124.83C284.38 117.78 306.03 113.98 321.7 114.86H321.85ZM321.69 138.5C312.04 138.31 297.56 138.65 291 145.91C286.57 151.39 291.87 158.22 307.09 160.2C310.9 160.69 314.58 160.88 318.34 160.79C324.83 160.66 330.87 161.12 337.3 160.12C357.37 157.33 359.8 146.19 345.11 141.09C338.43 138.7 329.13 138.28 321.85 138.51H321.68L321.69 138.5Z" fill="#063026"/>
<mask id="mask1_29_161" style="mask-type:alpha" maskUnits="userSpaceOnUse" x="2" y="5" width="194" height="178">
<path d="M9.63586 5.22799C30.8169 4.7305 110.055 5.22799 121.595 5.05884C125.441 4.98919 129.478 8.16313 130.167 12.0932C130.737 19.7445 130.227 28.1918 130.387 36.0022C130.367 40.3801 130.397 43.6137 130.387 47.1458C130.627 51.3247 129.947 54.9861 126.401 57.2945C124.183 58.5581 123.154 58.7471 121.705 58.7869C111.524 58.1302 18.0183 60.1301 7.72756 57.9511C2.43226 55.6528 2.28246 50.3297 2.51226 45.4146C2.51226 38.3006 2.51226 25.2168 2.51226 18.2123C2.17256 12.3917 2.91186 6.95922 9.53586 5.25783L9.63586 5.23793V5.22799Z" fill="url(#paint0_linear_29_161)"/>
<path d="M9.63586 129.228C30.8169 128.731 110.055 129.228 121.595 129.059C125.441 128.989 129.478 132.163 130.167 136.093C130.737 143.745 130.227 152.192 130.387 160.002C130.367 164.38 130.397 167.614 130.387 171.146C130.627 175.325 129.947 178.986 126.401 181.294C124.183 182.558 123.154 182.747 121.705 182.787C111.524 182.13 18.0183 184.13 7.72756 181.951C2.43226 179.653 2.28246 174.33 2.51226 169.415C2.51226 162.301 2.51226 149.217 2.51226 142.212C2.17256 136.382 2.91186 130.959 9.53586 129.248L9.63586 129.228Z" fill="url(#paint1_linear_29_161)"/>
<path d="M9.92321 67.1924C20.139 66.7733 43.0489 67.1924 50.6139 67.0427C56.3209 66.6435 60.8299 71.374 60.3829 76.7532C60.3729 82.3719 60.3829 100.935 60.3829 109.637C61.0329 117.242 56.5139 121.593 48.7659 120.935C39.2199 120.945 18.1893 120.935 12.269 120.935C9.99431 121.044 7.58751 120.366 5.74951 118.939C3.19051 116.793 2.42881 114.078 2.49991 111.224C2.49991 107.631 2.49991 97.3718 2.49991 88.7491C2.49991 84.4677 2.49991 81.1444 2.49991 77.5616C2.02261 72.9808 4.66291 68.0906 9.80131 67.2224L9.92321 67.2024V67.1924Z" fill="url(#paint2_linear_29_161)"/>
<path d="M80.9229 67.1924C91.1389 66.7733 114.049 67.1924 121.614 67.0427C127.321 66.6435 131.83 71.374 131.383 76.7532C131.373 82.3719 131.383 100.935 131.383 109.637C132.033 117.242 127.514 121.593 119.766 120.935C110.22 120.945 89.1888 120.935 83.2688 120.935C80.9938 121.044 78.5878 120.366 76.7488 118.939C74.1898 116.803 73.4289 114.078 73.4999 111.224C73.4999 107.631 73.4999 97.3718 73.4999 88.7491C73.4999 84.4677 73.4999 81.1444 73.4999 77.5616C73.0229 72.9808 75.6628 68.0906 80.8008 67.2224L80.9229 67.2024V67.1924Z" fill="url(#paint3_linear_29_161)"/>
<path d="M138 13C138 8.58172 141.582 5 146 5H188C192.418 5 196 8.58172 196 13V175C196 179.418 192.418 183 188 183H146C141.582 183 138 179.418 138 175V13Z" fill="url(#paint4_linear_29_161)"/>
</mask>
<g mask="url(#mask1_29_161)">
<path d="M201 -5H-14V193H201V-5Z" fill="url(#paint5_linear_29_161)"/>
</g>
<path d="M553 2H531C526.582 2 523 5.58172 523 10V128C523 132.418 526.582 136 531 136H553C557.418 136 561 132.418 561 128V10C561 5.58172 557.418 2 553 2Z" fill="#063026"/>
<path d="M514 111H491C488.791 111 487 112.791 487 115V128C487 130.209 488.791 132 491 132H514C516.209 132 518 130.209 518 128V115C518 112.791 516.209 111 514 111Z" fill="#063026"/>
<path d="M646.289 28.9725C646.289 48.6196 653.651 68.2667 676.9 79.1188C681.794 81.4032 683.998 87.5183 680.961 91.9844L673.672 102.703C671.69 105.618 668.014 106.933 664.737 105.632C654.204 101.45 645.865 95.4106 639.421 87.993C635.147 83.073 626.358 83.1007 622.215 88.1318C615.136 96.7298 605.831 103.739 594.045 108.416C590.811 109.7 587.179 108.442 585.171 105.6L577.468 94.6945C574.299 90.2085 576.522 83.9405 581.518 81.6574C606.291 70.3345 614.186 49.0572 614.36 29.1696V19.0372C614.36 14.6189 617.942 11.0371 622.36 11.0371H638.289C642.707 11.0371 646.289 14.6189 646.289 19.0372V28.9725ZM713.184 0C717.602 0 721.184 3.58172 721.184 8V42.6526C721.184 47.0709 724.766 50.6526 729.184 50.6526H735.85C740.268 50.6526 743.85 54.2344 743.85 58.6526V69.063C743.85 73.4812 740.268 77.063 735.85 77.063H729.184C724.766 77.063 721.184 80.6447 721.184 85.063V124.643C721.184 129.061 717.602 132.643 713.184 132.643H697.452C693.034 132.643 689.452 129.061 689.452 124.643V7.99999C689.452 3.58171 693.034 0 697.452 0H713.184ZM718.9 154.126C723.318 154.126 726.9 157.708 726.9 162.126V171.354C726.9 175.772 723.318 179.354 718.9 179.354H608.17C603.751 179.354 600.17 175.772 600.17 171.354V127.438C600.17 123.019 603.751 119.438 608.17 119.438H624.296C628.714 119.438 632.296 123.019 632.296 127.438V146.126C632.296 150.544 635.877 154.126 640.296 154.126H718.9Z" fill="#063026"/>
</g>
<defs>
<linearGradient id="paint0_linear_29_161" x1="66.4449" y1="5" x2="66.4449" y2="59" gradientUnits="userSpaceOnUse">
<stop stop-color="#2A9658"/>
<stop offset="0.0769231" stop-color="#288E53"/>
<stop offset="1" stop-color="#0D301C"/>
</linearGradient>
<linearGradient id="paint1_linear_29_161" x1="66.4449" y1="129" x2="66.4449" y2="183" gradientUnits="userSpaceOnUse">
<stop stop-color="#2A9658"/>
<stop offset="0.0769231" stop-color="#288E53"/>
<stop offset="1" stop-color="#0D301C"/>
</linearGradient>
<linearGradient id="paint2_linear_29_161" x1="31.4449" y1="67" x2="31.4449" y2="121" gradientUnits="userSpaceOnUse">
<stop stop-color="#2A9658"/>
<stop offset="0.0769231" stop-color="#288E53"/>
<stop offset="1" stop-color="#0D301C"/>
</linearGradient>
<linearGradient id="paint3_linear_29_161" x1="102.445" y1="67" x2="102.445" y2="121" gradientUnits="userSpaceOnUse">
<stop stop-color="#2A9658"/>
<stop offset="0.0769231" stop-color="#288E53"/>
<stop offset="1" stop-color="#0D301C"/>
</linearGradient>
<linearGradient id="paint4_linear_29_161" x1="167" y1="5" x2="167" y2="183" gradientUnits="userSpaceOnUse">
<stop stop-color="#2A9658"/>
<stop offset="0.0769231" stop-color="#288E53"/>
<stop offset="1" stop-color="#0D301C"/>
</linearGradient>
<linearGradient id="paint5_linear_29_161" x1="190.141" y1="11.5" x2="82.818" y2="184.207" gradientUnits="userSpaceOnUse">
<stop stop-color="#3DBF55"/>
<stop offset="1" stop-color="#1EB68F"/>
</linearGradient>
</defs>
</svg>
