<svg width="623" height="174" viewBox="0 0 623 174" fill="none" xmlns="http://www.w3.org/2000/svg">
<mask id="mask0_30_172" style="mask-type:alpha" maskUnits="userSpaceOnUse" x="0" y="1" width="171" height="171">
<path d="M6.35303 1.21902C25.0657 0.741102 95.0705 1.21902 105.265 1.05653C108.664 0.989619 112.23 4.03874 112.839 7.81429C113.342 15.1647 112.892 23.2797 113.033 30.783C113.015 34.9887 113.042 38.0952 113.033 41.4884C113.245 45.5029 112.645 49.0204 109.511 51.2379C107.552 52.4518 106.642 52.6335 105.363 52.6717C96.3681 52.0408 13.7587 53.9621 4.66713 51.8688C-0.0110403 49.6608 -0.143441 44.5471 0.0595737 39.8252C0.0595737 32.991 0.0595737 20.4218 0.0595737 13.6927C-0.240535 8.10104 0.412643 2.88217 6.26477 1.24769L6.35303 1.22858V1.21902Z" fill="url(#paint0_linear_30_172)"/>
<path d="M6.35303 120.343C25.0657 119.865 95.0705 120.343 105.265 120.18C108.664 120.113 112.23 123.162 112.839 126.938C113.342 134.288 112.892 142.403 113.033 149.907C113.015 154.112 113.042 157.219 113.033 160.612C113.245 164.626 112.645 168.144 109.511 170.361C107.552 171.575 106.642 171.757 105.363 171.795C96.3681 171.164 13.7587 173.086 4.66713 170.992C-0.0110403 168.784 -0.143441 163.671 0.0595737 158.949C0.0595737 152.115 0.0595737 139.545 0.0595737 132.816C-0.240535 127.215 0.412643 122.006 6.26477 120.362L6.35303 120.343Z" fill="url(#paint1_linear_30_172)"/>
<path d="M6.60689 60.7466C15.6323 60.3439 35.8722 60.7466 42.556 60.6028C47.598 60.2193 51.5814 64.7638 51.1867 69.9314C51.1777 75.3292 51.1867 93.1619 51.1867 101.522C51.7608 108.828 47.7685 113.008 40.9232 112.375C32.4899 112.385 13.9097 112.375 8.67932 112.375C6.66969 112.481 4.54342 111.829 2.91957 110.458C0.658738 108.396 -0.0141372 105.789 0.0486636 103.047C0.0486636 99.5952 0.0486636 89.7392 0.0486636 81.4556C0.0486636 77.3426 0.0486636 74.1499 0.0486636 70.708C-0.372999 66.3074 1.95962 61.6095 6.49923 60.7754L6.60689 60.7562V60.7466Z" fill="url(#paint2_linear_30_172)"/>
<path d="M69.3334 60.7466C78.3589 60.3439 98.5987 60.7466 105.283 60.6028C110.325 60.2193 114.308 64.7638 113.913 69.9314C113.904 75.3292 113.913 93.1619 113.913 101.522C114.487 108.828 110.495 113.008 103.65 112.375C95.2164 112.385 76.6363 112.375 71.4059 112.375C69.3963 112.481 67.27 111.829 65.6461 110.458C63.3853 108.406 62.7124 105.789 62.7752 103.047C62.7752 99.5952 62.7752 89.7392 62.7752 81.4556C62.7752 77.3426 62.7752 74.1499 62.7752 70.708C62.3536 66.3074 64.6862 61.6095 69.2258 60.7754L69.3334 60.7562V60.7466Z" fill="url(#paint3_linear_30_172)"/>
<path d="M119.759 8.68539C119.759 4.44087 122.923 1 126.827 1H163.932C167.836 1 171 4.44087 171 8.68539V164.315C171 168.559 167.836 172 163.932 172H126.827C122.923 172 119.759 168.559 119.759 164.315V8.68539Z" fill="url(#paint4_linear_30_172)"/>
</mask>
<g mask="url(#mask0_30_172)">
<rect x="-14.5286" y="-8.60669" width="189.946" height="190.213" fill="url(#paint5_linear_30_172)"/>
</g>
<path d="M270.695 8.17188V20.125H261.906V48.6016C265.48 48.3086 268.996 47.957 272.336 47.5469L272.922 58.5625C252.883 61.9609 229.562 62.3125 212.688 62.3125L211.164 50.2422L222.531 50.125V20.125H213.859V8.17188H270.695ZM301.047 1.14062V66.2969H286.164V50.3594H273.039V38.4062H286.164V30.2031H273.039V18.4844H286.164V1.14062H301.047ZM264.602 67.9375C287.57 68.0547 301.281 75.2031 301.398 87.9766C301.281 100.398 287.57 107.781 264.602 107.781C241.75 107.781 227.922 100.398 227.922 87.9766C227.922 75.2031 241.75 68.0547 264.602 67.9375ZM264.602 79.4219C250.305 79.4219 242.805 82.1172 242.805 87.9766C242.805 93.6016 250.305 96.4141 264.602 96.4141C278.898 96.4141 286.516 93.6016 286.516 87.9766C286.516 82.1172 278.898 79.4219 264.602 79.4219ZM236.945 49.7734L247.609 49.4219V20.125H236.945V49.7734ZM405.227 1.25781V81.7656H390.227V73.3281H369.836V63.1328H390.227V1.25781H405.227ZM407.57 93.9531V105.906H328.117V74.0312H343V59.8516C333.449 60.2617 324.367 60.3203 316.281 60.3203L314.523 48.4844C334.094 48.3672 360.461 48.1328 382.961 45.3203L383.781 55.9844C375.344 57.3906 366.613 58.3867 358 59.0312V79.3047H343V93.9531H407.57ZM349.211 4.89062C364.68 4.77344 375.812 12.625 375.812 23.9922C375.812 35.3594 364.68 42.7422 349.211 42.7422C333.391 42.7422 322.375 35.3594 322.375 23.9922C322.375 12.625 333.273 4.77344 349.211 4.89062ZM349.211 15.7891C341.594 15.7891 336.438 18.7188 336.555 23.9922C336.438 29.1484 341.594 31.9609 349.211 31.9609C356.359 31.9609 361.516 29.1484 361.633 23.9922C361.516 18.7188 356.359 15.7891 349.211 15.7891ZM457.961 19.4219C457.844 33.0156 465.578 46.2578 482.922 51.8828L475.07 63.6016C463.41 59.6758 455.383 52 450.812 42.2734C446.008 52.9961 437.512 61.375 425.148 65.5938L416.828 53.7578C434.992 48.1328 442.844 33.8359 442.961 19.3047V7.70312H457.961V19.4219ZM503.195 1.14062V31.9609H517.609V44.6172H503.195V79.3047H488.195V1.14062H503.195ZM507.18 93.9531V105.906H433.938V71.5703H449.172V93.9531H507.18ZM552.062 5.71094C565.715 5.59375 576.555 13.3867 579.484 24.8125H597.297V1.14062H612.18V58.4453H597.297V36.7656H579.602C576.789 48.4844 565.832 56.4531 552.062 56.4531C535.656 56.4531 523.586 45.7891 523.703 30.9062C523.586 16.2578 535.656 5.59375 552.062 5.71094ZM552.062 18.1328C543.742 18.0156 537.766 22.9375 537.883 30.9062C537.766 38.875 543.742 43.9141 552.062 43.9141C560.148 43.9141 566.008 38.875 566.008 30.9062C566.008 22.9375 560.148 18.0156 552.062 18.1328ZM555.812 63.1328V73.4453H597.297V63.1328H612.18V106.609H541.047V63.1328H555.812ZM555.812 94.5391H597.297V84.9297H555.812V94.5391Z" fill="url(#paint6_linear_30_172)"/>
<path d="M222.891 164V135.719H232.969C239.531 135.719 242.773 139.664 242.773 144.898C242.773 150.094 239.531 154.078 232.969 154.078H227.188V164H222.891ZM227.188 150.406H232.539C236.719 150.406 238.438 148.062 238.438 144.898C238.438 141.695 236.719 139.391 232.539 139.391H227.188V150.406ZM250.331 171.969C249.472 171.969 248.652 171.93 248.105 171.852V168.375C248.573 168.414 249.394 168.453 249.98 168.453C251.269 168.453 252.362 168.336 253.339 165.68L253.847 164.273L246.073 142.789H250.527L255.878 159.234H256.112L261.464 142.789H265.956L257.206 166.812C255.995 170.172 253.808 171.969 250.331 171.969ZM278.553 164.43C272.303 164.43 268.475 160.133 268.475 153.531C268.475 147.008 272.381 142.516 278.28 142.516C283.123 142.516 287.694 145.523 287.694 153.18V154.664H272.616C272.733 158.688 275.096 160.992 278.592 160.992C280.975 160.992 282.498 159.977 283.202 158.688H287.42C286.483 162.125 283.202 164.43 278.553 164.43ZM272.655 151.539H283.592C283.592 148.297 281.522 145.953 278.319 145.953C274.979 145.953 272.811 148.531 272.655 151.539ZM301.619 164.43C295.603 164.43 291.697 160.055 291.697 153.492C291.697 146.891 295.603 142.516 301.619 142.516C307.595 142.516 311.502 146.891 311.502 153.492C311.502 160.055 307.595 164.43 301.619 164.43ZM301.619 160.953C305.447 160.953 307.283 157.555 307.283 153.492C307.283 149.43 305.447 145.953 301.619 145.953C297.713 145.953 295.877 149.43 295.877 153.492C295.877 157.555 297.713 160.953 301.619 160.953ZM320.583 151.422V164H316.403V142.789H320.427V146.266H320.661C321.677 144 323.747 142.516 326.911 142.516C331.286 142.516 334.137 145.25 334.137 150.523V164H329.997V151.031C329.997 147.945 328.317 146.109 325.505 146.109C322.653 146.109 320.583 148.023 320.583 151.422ZM348.922 172.398C343.57 172.398 340.055 170.016 339.664 166.07H343.922C344.312 168.062 346.188 169.039 348.961 169.039C352.281 169.039 354.391 167.633 354.391 164.312V160.133H354.117C353.375 161.5 351.852 163.688 347.945 163.688C342.945 163.688 339.078 159.938 339.078 153.18C339.078 146.422 342.867 142.516 347.984 142.516C351.93 142.516 353.375 144.898 354.156 146.227H354.43V142.789H358.492V164.469C358.492 169.898 354.391 172.398 348.922 172.398ZM348.883 160.25C352.438 160.25 354.43 157.633 354.43 153.258C354.43 148.961 352.477 146.07 348.883 146.07C345.172 146.07 343.336 149.195 343.336 153.258C343.336 157.398 345.25 160.25 348.883 160.25ZM370.308 164L362.456 135.719H366.988L372.495 157.594H372.73L378.472 135.719H382.925L388.667 157.594H388.902L394.409 135.719H398.941L391.089 164H386.753L380.816 142.867H380.581L374.644 164H370.308ZM409.78 164.43C403.764 164.43 399.858 160.055 399.858 153.492C399.858 146.891 403.764 142.516 409.78 142.516C415.756 142.516 419.663 146.891 419.663 153.492C419.663 160.055 415.756 164.43 409.78 164.43ZM409.78 160.953C413.608 160.953 415.444 157.555 415.444 153.492C415.444 149.43 413.608 145.953 409.78 145.953C405.873 145.953 404.038 149.43 404.038 153.492C404.038 157.555 405.873 160.953 409.78 160.953ZM428.744 151.422V164H424.564V142.789H428.587V146.266H428.822C429.837 144 431.908 142.516 435.072 142.516C439.447 142.516 442.298 145.25 442.298 150.523V164H438.158V151.031C438.158 147.945 436.478 146.109 433.666 146.109C430.814 146.109 428.744 148.023 428.744 151.422ZM463.391 135.719V164H459.094V135.719H463.391ZM473.761 151.422V164H469.581V142.789H473.605V146.266H473.839C474.855 144 476.925 142.516 480.089 142.516C484.464 142.516 487.316 145.25 487.316 150.523V164H483.175V151.031C483.175 147.945 481.495 146.109 478.683 146.109C475.831 146.109 473.761 148.023 473.761 151.422ZM501.123 164.43C496.006 164.43 492.256 160.289 492.256 153.453C492.256 146.539 496.045 142.516 501.163 142.516C505.108 142.516 506.553 144.898 507.295 146.227H507.491V135.719H511.67V164H507.608V160.68H507.295C506.514 162.086 504.991 164.43 501.123 164.43ZM502.061 160.875C505.616 160.875 507.608 157.828 507.608 153.375C507.608 148.961 505.655 146.07 502.061 146.07C498.35 146.07 496.514 149.195 496.514 153.375C496.514 157.633 498.428 160.875 502.061 160.875ZM531.377 155.172V142.789H535.517V164H531.455V160.328H531.22C530.244 162.594 528.056 164.273 524.892 164.273C520.791 164.273 517.9 161.539 517.9 156.266V142.789H522.08V155.758C522.08 158.648 523.837 160.484 526.377 160.484C528.681 160.484 531.377 158.805 531.377 155.172ZM553.309 148.57C552.919 146.891 551.591 145.797 549.286 145.797C546.903 145.797 545.184 147.047 545.223 148.648C545.184 149.898 546.2 150.797 548.544 151.344L551.903 152.125C555.809 152.984 557.684 154.859 557.723 157.867C557.684 161.695 554.481 164.43 549.052 164.43C543.973 164.43 540.927 162.164 540.419 158.219H544.677C545.028 160.133 546.513 161.07 549.013 161.07C551.708 161.07 553.427 159.977 553.466 158.18C553.427 156.812 552.411 155.914 550.184 155.406L546.864 154.703C543.036 153.844 541.044 151.812 541.044 148.883C541.044 145.094 544.325 142.516 549.247 142.516C553.973 142.516 556.903 144.938 557.333 148.57H553.309ZM572.508 142.789V146.109H568.172V157.75C568.172 160.133 569.383 160.562 570.711 160.602C571.297 160.602 572.234 160.523 572.82 160.484V164.117C572.234 164.195 571.336 164.273 570.203 164.273C566.922 164.273 563.992 162.477 564.031 158.609V146.109H560.906V142.789H564.031V137.711H568.172V142.789H572.508ZM577.37 164V142.789H581.394V146.148H581.628C582.409 143.883 584.519 142.477 587.019 142.477C587.527 142.477 588.347 142.516 588.777 142.555V146.539C588.425 146.461 587.448 146.305 586.589 146.305C583.698 146.305 581.55 148.297 581.55 151.07V164H577.37ZM595.944 171.969C595.084 171.969 594.264 171.93 593.717 171.852V168.375C594.186 168.414 595.006 168.453 595.592 168.453C596.881 168.453 597.975 168.336 598.952 165.68L599.459 164.273L591.686 142.789H596.139L601.491 159.234H601.725L607.077 142.789H611.569L602.819 166.812C601.608 170.172 599.42 171.969 595.944 171.969Z" fill="#324B40"/>
<defs>
<linearGradient id="paint0_linear_30_172" x1="56.542" y1="1" x2="56.542" y2="52.8764" gradientUnits="userSpaceOnUse">
<stop stop-color="#2A9658"/>
<stop offset="0.0769231" stop-color="#288E53"/>
<stop offset="1" stop-color="#0D301C"/>
</linearGradient>
<linearGradient id="paint1_linear_30_172" x1="56.542" y1="120.124" x2="56.542" y2="172" gradientUnits="userSpaceOnUse">
<stop stop-color="#2A9658"/>
<stop offset="0.0769231" stop-color="#288E53"/>
<stop offset="1" stop-color="#0D301C"/>
</linearGradient>
<linearGradient id="paint2_linear_30_172" x1="25.6206" y1="60.5618" x2="25.6206" y2="112.438" gradientUnits="userSpaceOnUse">
<stop stop-color="#2A9658"/>
<stop offset="0.0769231" stop-color="#288E53"/>
<stop offset="1" stop-color="#0D301C"/>
</linearGradient>
<linearGradient id="paint3_linear_30_172" x1="88.3472" y1="60.5618" x2="88.3472" y2="112.438" gradientUnits="userSpaceOnUse">
<stop stop-color="#2A9658"/>
<stop offset="0.0769231" stop-color="#288E53"/>
<stop offset="1" stop-color="#0D301C"/>
</linearGradient>
<linearGradient id="paint4_linear_30_172" x1="145.379" y1="1" x2="145.379" y2="172" gradientUnits="userSpaceOnUse">
<stop stop-color="#2A9658"/>
<stop offset="0.0769231" stop-color="#288E53"/>
<stop offset="1" stop-color="#0D301C"/>
</linearGradient>
<linearGradient id="paint5_linear_30_172" x1="165.824" y1="7.24444" x2="59.1332" y2="165.136" gradientUnits="userSpaceOnUse">
<stop stop-color="#3DBF55"/>
<stop offset="1" stop-color="#1EB68F"/>
</linearGradient>
<linearGradient id="paint6_linear_30_172" x1="415.5" y1="0" x2="415.5" y2="108" gradientUnits="userSpaceOnUse">
<stop stop-color="#0A3F0D"/>
<stop offset="1" stop-color="#0D4A37"/>
</linearGradient>
</defs>
</svg>
